<svg width="43" height="750" viewBox="0 0 43 750" fill="none" xmlns="http://www.w3.org/2000/svg">
<path d="M14.9444 10.3374C11.0851 10.3374 9.60714 10.3904 7.8007 10.7385L7.8007 -1.66521e-06C9.60714 0.348111 11.2494 0.446491 14.8212 0.446491L36.088 0.446492C38.7977 0.446493 40.1526 0.348113 42.0822 0.0529737C42.0001 2.10381 41.959 3.49626 41.959 7.34821L41.959 21.7798C41.959 26.1766 42.0001 27.8263 42.2464 30.1723L34.4458 30.1723C34.6511 27.9777 34.7332 26.0252 34.7332 21.8327L34.7332 10.345L28.0001 10.345L28.0001 19.7365C28.0001 23.6338 28.0822 25.5333 28.2875 27.728L20.6922 27.728C20.8975 25.5333 20.9796 23.5355 20.9796 19.7365L20.9796 10.345L14.9444 10.345L14.9444 10.3374Z" fill="url(#paint0_linear_1_417)"/>
<path d="M25.4547 57.4386C26.0294 55.1381 26.2347 53.8894 26.2347 52.3456C26.2347 49.7953 25.4957 47.8504 24.0177 46.405C23.0324 45.459 22.1702 45.1033 20.3638 44.9066L13.9591 44.9066C11.3315 44.9066 9.77139 45.0049 7.80072 45.3077L7.80072 34.9702C9.8535 35.2729 11.3315 35.3713 14.0001 35.3713L26.6453 35.3713C29.6423 35.3713 31.0793 35.2729 32.8447 34.9702L32.8447 44.9066L29.6013 44.9066C32.2288 47.3509 33.3373 50.3477 33.3373 54.8959C33.3373 56.4927 33.2552 57.4916 32.8447 59.8376L25.4547 57.4386Z" fill="url(#paint1_linear_1_417)"/>
<path d="M20.3637 62.5847C28.5748 62.5847 33.7889 68.9794 33.7889 79.0671C33.7889 89.1548 28.5748 95.5495 20.4458 95.5495C12.3168 95.5495 6.85636 88.9581 6.85636 79.0217C6.85636 69.0853 12.1115 62.5923 20.3637 62.5923L20.3637 62.5847ZM20.4047 72.12C15.8476 72.12 13.0968 74.7157 13.0968 79.0595C13.0968 83.4034 15.7654 85.9007 20.3226 85.9007C24.8798 85.9007 27.6305 83.3504 27.6305 79.1049C27.6305 74.8595 24.9209 72.1124 20.4047 72.1124L20.4047 72.12Z" fill="url(#paint2_linear_1_417)"/>
<path d="M7.80076 100.642C9.68932 100.945 11.4137 101.043 14.0002 101.043L26.6453 101.043C29.7655 101.043 31.2435 100.945 32.8447 100.642L32.8447 110.533L31.1204 110.533C31.0109 110.533 30.8193 110.516 30.5456 110.48L30.135 110.48C32.4342 113.031 33.5016 116.073 33.5016 120.016C33.5016 122.611 33.0089 124.76 32.0236 126.41C31.4899 127.311 30.9972 127.81 29.9708 128.461C32.4752 131.556 33.5427 134.606 33.5427 138.95C33.5427 146.094 30.3403 149.734 24.1409 149.734L13.9591 149.734C11.4137 149.734 9.73038 149.832 7.80076 150.135L7.80076 139.744C9.73038 140.047 11.2084 140.146 14.0002 140.146L22.4576 140.146C25.5368 140.146 26.7274 139.048 26.7274 136.203C26.7274 133.653 25.0852 131.36 22.3345 130.111L13.9591 130.111C11.4958 130.111 9.77143 130.209 7.80076 130.512L7.80076 120.122C9.64827 120.424 11.3726 120.523 14.0002 120.523L22.4576 120.523C24.182 120.523 24.962 120.326 25.66 119.675C26.3169 119.123 26.6864 118.124 26.6864 116.928C26.6864 114.234 25.0852 111.933 22.2934 110.533L14.0002 110.533C11.4137 110.533 9.81249 110.632 7.80076 110.934L7.80076 100.65L7.80076 100.642Z" fill="url(#paint3_linear_1_417)"/>
<path d="M41.9589 185.499C40.2756 185.196 38.8797 185.098 35.8827 185.098L13.8769 185.098C11.044 185.098 9.52495 185.196 7.80061 185.499L7.80061 174.511C9.40179 174.813 11.1261 174.912 13.8769 174.912L35.8827 174.912C38.9619 174.912 40.1525 174.813 41.9589 174.511L41.9589 185.499Z" fill="url(#paint4_linear_1_417)"/>
<path d="M7.80072 192.295C9.73034 192.597 11.4547 192.696 14.0001 192.696L26.6453 192.696C29.4781 192.696 31.2024 192.597 32.8447 192.295L32.8447 202.231L31.1203 202.231C30.874 202.231 30.2582 202.178 29.9708 202.178C32.4341 205.326 33.4605 208.368 33.4605 212.463C33.4605 215.906 32.6805 218.653 31.1614 220.507C29.5192 222.505 27.5074 223.352 24.264 223.352L13.9591 223.352C11.5778 223.352 9.52506 223.504 7.80072 223.754L7.80072 213.363C9.77139 213.666 11.4957 213.764 14.0001 213.764L22.4165 213.764C24.0588 213.764 24.7567 213.567 25.4547 212.962C26.1937 212.311 26.6042 211.161 26.6042 209.662C26.6042 206.862 25.1673 204.365 22.2934 202.223L14.0001 202.223C11.66 202.223 9.93561 202.322 7.80072 202.625L7.80072 192.287L7.80072 192.295Z" fill="url(#paint5_linear_1_417)"/>
<path d="M0.369521 253.124C2.38125 253.374 4.02348 253.472 6.85632 253.472L9.23755 253.472C9.73021 253.472 9.77127 253.472 10.6745 253.57C8.66277 250.725 7.67743 247.425 7.67743 243.384C7.67743 239.343 8.82699 235.491 10.9208 232.948C13.1789 230.201 16.5455 228.756 20.61 228.756C25.824 228.756 29.6012 231.003 31.8592 235.347C33.0498 237.693 33.5836 240.289 33.5836 243.589C33.5836 247.637 32.7624 250.483 30.7507 253.578C30.8602 253.578 30.997 253.56 31.1613 253.525L32.8446 253.525L32.8446 263.363C31.0792 263.06 29.3959 262.962 26.3988 262.962L6.85632 262.962C3.8182 262.962 2.01175 263.06 0.369521 263.363L0.369521 253.124ZM13.8768 245.632C13.8768 250.074 16.7918 253.426 20.651 253.426C24.5103 253.426 27.3842 250.082 27.3842 245.738C27.3842 244.043 26.8094 242.241 25.9472 240.993C24.7566 239.441 22.7859 238.548 20.5279 238.548C16.5044 238.548 13.8768 241.348 13.8768 245.639L13.8768 245.632Z" fill="url(#paint6_linear_1_417)"/>
<path d="M32.8445 301.072C30.9149 300.769 29.1906 300.671 26.6862 300.671L14 300.671C11.1672 300.671 9.48387 300.769 7.84164 301.072L7.84164 291.136L9.60704 291.136C9.81232 291.136 10.4281 291.136 10.7155 291.189C8.17009 287.889 7.18475 285.044 7.18475 280.798C7.18475 277.453 7.96481 274.752 9.48387 272.86C11.1261 270.862 13.1378 270.014 16.3812 270.014L26.6862 270.014C29.0674 270.014 31.1202 269.863 32.8445 269.613L32.8445 280.004C30.8739 279.701 29.1495 279.603 26.6862 279.603L18.2698 279.603C16.5865 279.603 15.8475 279.799 15.1906 280.405C14.4516 281.101 14.041 282.206 14.041 283.651C14.041 286.398 15.6422 289.198 18.2698 291.143L26.6862 291.143C28.9853 291.143 30.7096 291.045 32.8445 290.742L32.8445 301.08L32.8445 301.072Z" fill="url(#paint7_linear_1_417)"/>
<path d="M32.8446 317.804C31.1613 317.502 29.5191 317.403 26.6452 317.403L14 317.403C11.783 317.403 9.56601 317.555 7.80061 317.804L7.80061 307.369C9.81234 307.671 11.3725 307.77 14 307.77L26.6452 307.77C29.3138 307.77 30.9971 307.671 32.8446 307.369L32.8446 317.804ZM41.9589 317.653L35.8006 317.653L35.8006 307.512L41.9589 307.512L41.9589 317.653Z" fill="url(#paint8_linear_1_417)"/>
<path d="M25.4547 346.622C26.0294 344.322 26.2347 343.073 26.2347 341.529C26.2347 338.979 25.4957 337.034 24.0177 335.589C23.0324 334.643 22.1702 334.287 20.3638 334.09L13.9591 334.09C11.3315 334.09 9.77139 334.189 7.80072 334.491L7.80072 324.154C9.8535 324.457 11.3315 324.555 14.0001 324.555L26.6453 324.555C29.6423 324.555 31.0793 324.457 32.8447 324.154L32.8447 334.09L29.6013 334.09C32.2288 336.535 33.3373 339.531 33.3373 344.08C33.3373 345.676 33.2552 346.675 32.8447 349.021L25.4547 346.622Z" fill="url(#paint9_linear_1_417)"/>
<path d="M27.3431 353.766C31.4487 351.617 31.8182 351.42 32.8445 350.77L32.8445 361.606C31.5308 361.856 29.7654 362.507 27.5484 363.551L18.0645 368.145L27.3841 372.587C30.217 373.987 31.4076 374.434 32.8445 374.736L32.8445 385.573C31.4213 384.741 29.5875 383.742 27.3431 382.576L5.62464 371.142C1.7654 369.144 1.086e-05 365.549 1.10849e-05 359.858C1.11716e-05 357.664 0.205288 355.764 0.697956 353.017L7.22581 354.114C6.52786 355.764 6.32258 356.71 6.32258 358.012C6.32258 359.911 7.02053 361.311 8.2522 362.06L10.0176 363.112L27.3431 353.774L27.3431 353.766Z" fill="url(#paint10_linear_1_417)"/>
<path d="M33.7067 411.205C35.7595 411.205 37.4017 411.106 39.3314 410.803L39.3314 420.99C37.6481 420.74 35.6774 420.588 33.7067 420.588L32.8446 420.588L32.8446 422.39C32.8446 424.584 32.8856 425.734 33.0498 427.286L26.2346 427.286C26.3988 425.787 26.4809 424.486 26.4809 422.692L26.4809 420.596L15.9707 420.596C14.8211 420.596 14.2464 420.846 13.8768 421.497C13.5895 422.049 13.4252 422.844 13.4252 423.797C13.4252 425.099 13.6305 426.045 14.1642 427.293L7.92377 428.043C7.34899 425.795 7.10266 423.85 7.10266 421.148C7.10266 417.751 7.55428 415.405 8.53961 413.808C9.73022 411.908 11.1261 411.212 13.9179 411.212L26.4809 411.212L26.4809 409.313C26.4809 407.716 26.3988 406.414 26.2346 404.969L33.0909 404.969C32.9267 406.414 32.8446 407.663 32.8446 409.411L32.8446 411.212L33.7067 411.212L33.7067 411.205Z" fill="url(#paint11_linear_1_417)"/>
<path d="M20.3637 430.934C28.5748 430.934 33.7889 437.328 33.7889 447.416C33.7889 457.504 28.5748 463.898 20.4458 463.898C12.3168 463.898 6.85636 457.307 6.85636 447.371C6.85636 437.434 12.1115 430.941 20.3637 430.941L20.3637 430.934ZM20.4047 440.476C15.8476 440.476 13.0968 443.072 13.0968 447.416C13.0968 451.76 15.7654 454.257 20.3226 454.257C24.8798 454.257 27.6305 451.707 27.6305 447.461C27.6305 443.216 24.9209 440.469 20.4047 440.469L20.4047 440.476Z" fill="url(#paint12_linear_1_417)"/>
<path d="M30.0528 513.792C33.7889 512.846 35.6364 510.198 35.6364 505.899C35.6364 499.807 31.695 496.258 24.9208 496.258C18.1466 496.258 14.1642 499.951 14.1642 506.149C14.1642 508.896 15.1085 511.242 16.7508 512.695C17.7361 513.542 18.5572 513.891 20.2815 514.193L19.0088 524.584C15.5191 523.638 13.5074 522.533 11.4956 520.437C8.58068 517.341 7.02056 512.498 7.02056 506.452C7.02056 500.405 8.58068 495.214 11.5367 491.672C14.6159 487.979 19.4194 485.875 24.9208 485.875C30.4223 485.875 35.2258 487.971 38.4281 491.922C41.1789 495.365 42.6979 500.412 42.6979 506.255C42.6979 512.695 40.8915 517.742 37.3196 520.989C35.6364 522.586 34.1173 523.433 31.695 524.084L30.0528 513.8L30.0528 513.792Z" fill="url(#paint13_linear_1_417)"/>
<path d="M20.3637 528.632C28.5748 528.632 33.7889 535.027 33.7889 545.115C33.7889 555.202 28.5748 561.597 20.4458 561.597C12.3168 561.597 6.85636 555.006 6.85636 545.069C6.85636 535.133 12.1115 528.64 20.3637 528.64L20.3637 528.632ZM20.4047 538.168C15.8476 538.168 13.0968 540.763 13.0968 545.107C13.0968 549.451 15.7654 551.948 20.3226 551.948C24.8798 551.948 27.6305 549.398 27.6305 545.153C27.6305 540.907 24.9209 538.16 20.4047 538.16L20.4047 538.168Z" fill="url(#paint14_linear_1_417)"/>
<path d="M7.80072 566.69C9.73034 566.993 11.4547 567.091 14.0001 567.091L26.6453 567.091C29.4781 567.091 31.2024 566.993 32.8447 566.69L32.8447 576.627L31.1203 576.627C30.874 576.627 30.2582 576.574 29.9708 576.574C32.4341 579.722 33.4605 582.764 33.4605 586.858C33.4605 590.301 32.6805 593.048 31.1614 594.902C29.5192 596.9 27.5074 597.748 24.264 597.748L13.9591 597.748C11.5778 597.748 9.52506 597.899 7.80072 598.149L7.80072 587.759C9.77139 588.061 11.4957 588.16 14.0001 588.16L22.4165 588.16C24.0588 588.16 24.7567 587.963 25.4547 587.358C26.1937 586.707 26.6042 585.556 26.6042 584.058C26.6042 581.258 25.1673 578.761 22.2934 576.619L14.0001 576.619C11.66 576.619 9.93561 576.717 7.80072 577.02L7.80072 566.683L7.80072 566.69Z" fill="url(#paint15_linear_1_417)"/>
<path d="M33.7067 608.342C35.7595 608.342 37.4017 608.244 39.3314 607.941L39.3314 618.127C37.6481 617.877 35.6774 617.726 33.7067 617.726L32.8446 617.726L32.8446 619.527C32.8446 621.722 32.8856 622.872 33.0498 624.424L26.2346 624.424C26.3988 622.925 26.4809 621.623 26.4809 619.83L26.4809 617.734L15.9707 617.734C14.8211 617.734 14.2464 617.983 13.8768 618.634C13.5895 619.187 13.4252 619.981 13.4252 620.935C13.4252 622.236 13.6305 623.182 14.1642 624.431L7.92377 625.18C7.34899 622.933 7.10266 620.988 7.10266 618.286C7.10266 614.888 7.55428 612.542 8.53961 610.945C9.73022 609.046 11.1261 608.35 13.9179 608.35L26.4809 608.35L26.4809 606.45C26.4809 604.854 26.3988 603.552 26.2346 602.106L33.0909 602.106C32.9267 603.552 32.8446 604.801 32.8446 606.549L32.8446 608.35L33.7067 608.35L33.7067 608.342Z" fill="url(#paint16_linear_1_417)"/>
<path d="M25.4547 651.841C26.0294 649.541 26.2347 648.292 26.2347 646.748C26.2347 644.198 25.4957 642.253 24.0177 640.808C23.0324 639.862 22.1702 639.506 20.3638 639.309L13.9591 639.309C11.3315 639.309 9.77139 639.408 7.80072 639.711L7.80072 629.373C9.8535 629.676 11.3315 629.774 14.0001 629.774L26.6453 629.774C29.6423 629.774 31.0793 629.676 32.8447 629.373L32.8447 639.309L29.6013 639.309C32.2288 641.754 33.3373 644.751 33.3373 649.299C33.3373 650.896 33.2552 651.894 32.8447 654.24L25.4547 651.841Z" fill="url(#paint17_linear_1_417)"/>
<path d="M24.9619 678.313C26.9326 678.313 27.8358 676.868 27.8358 673.568C27.8358 670.269 26.9736 668.672 24.9619 667.923L26.2346 658.388C28.6569 659.387 29.9707 660.484 31.2024 662.58C32.7625 665.274 33.5425 668.975 33.5425 673.818C33.5425 677.511 32.9678 681.113 32.1056 683.058C30.6686 686.252 28.4106 687.652 24.7156 687.652L13.6305 687.652C11.1262 687.652 9.64815 687.75 7.80064 688L7.80064 678.313L9.6892 678.313C7.92381 675.513 7.22586 672.721 7.22586 668.627C7.22586 664.828 7.96486 661.982 9.48392 659.984C10.8388 658.183 12.8094 657.237 15.0675 657.237C17.654 657.237 19.7068 658.486 21.0616 660.885C22.5396 663.435 23.4018 666.78 23.7302 671.275C23.8945 673.22 23.9355 674.719 24.0176 678.313L24.9619 678.313ZM18.7625 678.313C18.6804 673.871 18.4751 671.722 17.9414 669.671C17.4487 667.87 16.4223 666.773 15.2317 666.773C13.7537 666.773 12.8915 668.271 12.8915 670.867C12.8915 672.918 13.5074 675.165 14.4517 676.512C15.2728 677.662 16.3813 678.313 17.6129 678.313L18.7625 678.313Z" fill="url(#paint18_linear_1_417)"/>
<path d="M23.7302 714.774C24.9619 714.328 25.5366 714.025 26.1525 713.374C27.0968 712.375 27.5894 710.975 27.5894 709.182C27.5894 705.141 24.9619 702.742 20.4457 702.742C15.9296 702.742 13.1378 705.292 13.1378 709.288C13.1378 711.233 13.7947 713.034 14.9443 714.033C15.478 714.479 15.8886 714.729 16.8328 714.933L15.6422 724.12C13.8768 723.568 12.7683 722.97 11.5777 722.024C8.5396 719.527 6.85632 714.979 6.85632 709.189C6.85632 704.399 8.08799 700.297 10.3871 697.55C12.7273 694.652 16.3402 693.055 20.3636 693.055C28.5748 693.055 33.8299 699.344 33.8299 709.084C33.8299 716.772 30.7097 722.115 25.2493 723.765L23.7302 714.774Z" fill="url(#paint19_linear_1_417)"/>
<path d="M33.7067 733.005C35.7595 733.005 37.4017 732.906 39.3314 732.604L39.3314 742.79C37.6481 742.54 35.6774 742.389 33.7067 742.389L32.8446 742.389L32.8446 744.19C32.8446 746.384 32.8856 747.535 33.0498 749.086L26.2346 749.086C26.3988 747.588 26.4809 746.286 26.4809 744.493L26.4809 742.396L15.9707 742.396C14.8211 742.396 14.2464 742.646 13.8768 743.297C13.5895 743.849 13.4252 744.644 13.4252 745.597C13.4252 746.899 13.6305 747.845 14.1642 749.094L7.92377 749.843C7.34899 747.595 7.10266 745.65 7.10266 742.949C7.10266 739.551 7.55428 737.205 8.53961 735.608C9.73022 733.709 11.1261 733.012 13.9179 733.012L26.4809 733.012L26.4809 731.113C26.4809 729.516 26.3988 728.214 26.2346 726.769L33.0909 726.769C32.9267 728.214 32.8446 729.463 32.8446 731.211L32.8446 733.012L33.7067 733.012L33.7067 733.005Z" fill="url(#paint20_linear_1_417)"/>
<defs>
<linearGradient id="paint0_linear_1_417" x1="13.3158" y1="-6.09955" x2="47.2737" y2="24.6048" gradientUnits="userSpaceOnUse">
<stop stop-color="#6D4799"/>
<stop offset="1" stop-color="#E6AE20"/>
</linearGradient>
<linearGradient id="paint1_linear_1_417" x1="11.7284" y1="30.6264" x2="37.8782" y2="54.2707" gradientUnits="userSpaceOnUse">
<stop stop-color="#6D4799"/>
<stop offset="1" stop-color="#E6AE20"/>
</linearGradient>
<linearGradient id="paint2_linear_1_417" x1="10.0176" y1="67.5642" x2="32.8176" y2="88.1865" gradientUnits="userSpaceOnUse">
<stop stop-color="#6D4799"/>
<stop offset="1" stop-color="#E6AE20"/>
</linearGradient>
<linearGradient id="paint3_linear_1_417" x1="2.87408" y1="106.091" x2="38.8046" y2="138.579" gradientUnits="userSpaceOnUse">
<stop stop-color="#6D4799"/>
<stop offset="1" stop-color="#E6AE20"/>
</linearGradient>
<linearGradient id="paint4_linear_1_417" x1="13.8563" y1="167.813" x2="38.1162" y2="189.749" gradientUnits="userSpaceOnUse">
<stop stop-color="#6D4799"/>
<stop offset="1" stop-color="#E6AE20"/>
</linearGradient>
<linearGradient id="paint5_linear_1_417" x1="6.95224" y1="193.233" x2="33.8482" y2="217.559" gradientUnits="userSpaceOnUse">
<stop stop-color="#6D4799"/>
<stop offset="1" stop-color="#E6AE20"/>
</linearGradient>
<linearGradient id="paint6_linear_1_417" x1="6.24732" y1="238.102" x2="33.4445" y2="262.7" gradientUnits="userSpaceOnUse">
<stop stop-color="#6D4799"/>
<stop offset="1" stop-color="#E6AE20"/>
</linearGradient>
<linearGradient id="paint7_linear_1_417" x1="9.26491" y1="273.087" x2="36.1601" y2="297.405" gradientUnits="userSpaceOnUse">
<stop stop-color="#6D4799"/>
<stop offset="1" stop-color="#E6AE20"/>
</linearGradient>
<linearGradient id="paint8_linear_1_417" x1="13.9453" y1="300.573" x2="37.8581" y2="322.188" gradientUnits="userSpaceOnUse">
<stop stop-color="#6D4799"/>
<stop offset="1" stop-color="#E6AE20"/>
</linearGradient>
<linearGradient id="paint9_linear_1_417" x1="11.7284" y1="319.81" x2="37.8782" y2="343.454" gradientUnits="userSpaceOnUse">
<stop stop-color="#6D4799"/>
<stop offset="1" stop-color="#E6AE20"/>
</linearGradient>
<linearGradient id="paint10_linear_1_417" x1="6.15152" y1="346.986" x2="40.0408" y2="377.621" gradientUnits="userSpaceOnUse">
<stop stop-color="#6D4799"/>
<stop offset="1" stop-color="#E6AE20"/>
</linearGradient>
<linearGradient id="paint11_linear_1_417" x1="13.4663" y1="408.185" x2="34.0669" y2="426.812" gradientUnits="userSpaceOnUse">
<stop stop-color="#6D4799"/>
<stop offset="1" stop-color="#E6AE20"/>
</linearGradient>
<linearGradient id="paint12_linear_1_417" x1="10.0176" y1="435.921" x2="32.8168" y2="456.535" gradientUnits="userSpaceOnUse">
<stop stop-color="#6D4799"/>
<stop offset="1" stop-color="#E6AE20"/>
</linearGradient>
<linearGradient id="paint13_linear_1_417" x1="11.6872" y1="491.483" x2="40.5175" y2="517.551" gradientUnits="userSpaceOnUse">
<stop stop-color="#6D4799"/>
<stop offset="1" stop-color="#E6AE20"/>
</linearGradient>
<linearGradient id="paint14_linear_1_417" x1="10.0176" y1="533.612" x2="32.8168" y2="554.227" gradientUnits="userSpaceOnUse">
<stop stop-color="#6D4799"/>
<stop offset="1" stop-color="#E6AE20"/>
</linearGradient>
<linearGradient id="paint15_linear_1_417" x1="6.95224" y1="567.629" x2="33.8482" y2="591.954" gradientUnits="userSpaceOnUse">
<stop stop-color="#6D4799"/>
<stop offset="1" stop-color="#E6AE20"/>
</linearGradient>
<linearGradient id="paint16_linear_1_417" x1="13.4663" y1="605.323" x2="34.0669" y2="623.95" gradientUnits="userSpaceOnUse">
<stop stop-color="#6D4799"/>
<stop offset="1" stop-color="#E6AE20"/>
</linearGradient>
<linearGradient id="paint17_linear_1_417" x1="11.7284" y1="625.029" x2="37.8782" y2="648.674" gradientUnits="userSpaceOnUse">
<stop stop-color="#6D4799"/>
<stop offset="1" stop-color="#E6AE20"/>
</linearGradient>
<linearGradient id="paint18_linear_1_417" x1="7.63642" y1="661.99" x2="31.934" y2="683.959" gradientUnits="userSpaceOnUse">
<stop stop-color="#6D4799"/>
<stop offset="1" stop-color="#E6AE20"/>
</linearGradient>
<linearGradient id="paint19_linear_1_417" x1="10.086" y1="697.853" x2="32.4718" y2="718.101" gradientUnits="userSpaceOnUse">
<stop stop-color="#6D4799"/>
<stop offset="1" stop-color="#E6AE20"/>
</linearGradient>
<linearGradient id="paint20_linear_1_417" x1="13.4663" y1="729.985" x2="34.0736" y2="748.611" gradientUnits="userSpaceOnUse">
<stop stop-color="#6D4799"/>
<stop offset="1" stop-color="#E6AE20"/>
</linearGradient>
</defs>
</svg>
