<svg width="40" height="23" viewBox="0 0 40 23" fill="none" xmlns="http://www.w3.org/2000/svg">
<path d="M0.77 11.17C0.77 9.67 1.05 8.26 1.61 6.94C2.19 5.6 2.99 4.42 4.01 3.4C5.03 2.36 6.2 1.55 7.52 0.969999C8.86 0.37 10.3 0.0699998 11.84 0.0699998C13.36 0.0699998 14.78 0.37 16.1 0.969999C17.44 1.55 18.62 2.36 19.64 3.4C20.68 4.42 21.49 5.6 22.07 6.94C22.65 8.26 22.94 9.67 22.94 11.17C22.94 12.71 22.65 14.15 22.07 15.49C21.49 16.83 20.68 18.01 19.64 19.03C18.62 20.03 17.44 20.82 16.1 21.4C14.78 21.96 13.36 22.24 11.84 22.24C10.3 22.24 8.86 21.96 7.52 21.4C6.2 20.84 5.03 20.06 4.01 19.06C2.99 18.06 2.19 16.89 1.61 15.55C1.05 14.21 0.77 12.75 0.77 11.17ZM3.77 11.2C3.77 12.34 3.98 13.41 4.4 14.41C4.82 15.39 5.4 16.26 6.14 17.02C6.88 17.78 7.74 18.38 8.72 18.82C9.7 19.24 10.76 19.45 11.9 19.45C13.02 19.45 14.07 19.24 15.05 18.82C16.03 18.38 16.88 17.78 17.6 17.02C18.32 16.26 18.89 15.39 19.31 14.41C19.73 13.41 19.94 12.33 19.94 11.17C19.94 10.03 19.73 8.96 19.31 7.96C18.89 6.94 18.31 6.05 17.57 5.29C16.83 4.53 15.97 3.94 14.99 3.52C14.01 3.08 12.96 2.86 11.84 2.86C10.7 2.86 9.64 3.08 8.66 3.52C7.68 3.96 6.82 4.56 6.08 5.32C5.34 6.08 4.77 6.97 4.37 7.99C3.97 8.99 3.77 10.06 3.77 11.2ZM26.3127 22C27.5927 20.76 28.8127 19.54 29.9727 18.34C31.1327 17.14 32.1727 15.98 33.0927 14.86C34.0327 13.74 34.7727 12.66 35.3127 11.62C35.8527 10.56 36.1227 9.54 36.1227 8.56C36.1227 7.9 36.0127 7.34 35.7927 6.88C35.5727 6.4 35.2827 6.01 34.9227 5.71C34.5827 5.41 34.1927 5.19 33.7527 5.05C33.3127 4.89 32.8627 4.81 32.4027 4.81C31.7427 4.81 31.1827 4.92 30.7227 5.14C30.2627 5.34 29.8827 5.61 29.5827 5.95C29.3027 6.29 29.0927 6.65 28.9527 7.03C28.8327 7.41 28.7727 7.79 28.7727 8.17C28.7727 8.83 28.8727 9.43 29.0727 9.97C29.2727 10.49 29.5627 10.95 29.9427 11.35L28.1427 12.94C27.6827 12.64 27.2827 12.22 26.9427 11.68C26.6227 11.14 26.3727 10.56 26.1927 9.94C26.0327 9.3 25.9527 8.73 25.9527 8.23C25.9527 7.15 26.2127 6.14 26.7327 5.2C27.2727 4.24 28.0527 3.47 29.0727 2.89C30.1127 2.31 31.3727 2.02 32.8527 2.02C34.1127 2.02 35.2127 2.31 36.1527 2.89C37.0927 3.47 37.8227 4.24 38.3427 5.2C38.8627 6.14 39.1227 7.18 39.1227 8.32C39.1227 9.32 38.9227 10.3 38.5227 11.26C38.1227 12.22 37.5827 13.17 36.9027 14.11C36.2427 15.05 35.5027 15.98 34.6827 16.9C33.8827 17.8 33.0827 18.71 32.2827 19.63L31.0227 19.21H39.7827V22H26.3127Z" fill="white"/>
</svg>
