<svg width="39" height="23" viewBox="0 0 39 23" fill="none" xmlns="http://www.w3.org/2000/svg">
<path d="M0.77 11.17C0.77 9.67 1.05 8.26 1.61 6.94C2.19 5.6 2.99 4.42 4.01 3.4C5.03 2.36 6.2 1.55 7.52 0.969999C8.86 0.37 10.3 0.0699998 11.84 0.0699998C13.36 0.0699998 14.78 0.37 16.1 0.969999C17.44 1.55 18.62 2.36 19.64 3.4C20.68 4.42 21.49 5.6 22.07 6.94C22.65 8.26 22.94 9.67 22.94 11.17C22.94 12.71 22.65 14.15 22.07 15.49C21.49 16.83 20.68 18.01 19.64 19.03C18.62 20.03 17.44 20.82 16.1 21.4C14.78 21.96 13.36 22.24 11.84 22.24C10.3 22.24 8.86 21.96 7.52 21.4C6.2 20.84 5.03 20.06 4.01 19.06C2.99 18.06 2.19 16.89 1.61 15.55C1.05 14.21 0.77 12.75 0.77 11.17ZM3.77 11.2C3.77 12.34 3.98 13.41 4.4 14.41C4.82 15.39 5.4 16.26 6.14 17.02C6.88 17.78 7.74 18.38 8.72 18.82C9.7 19.24 10.76 19.45 11.9 19.45C13.02 19.45 14.07 19.24 15.05 18.82C16.03 18.38 16.88 17.78 17.6 17.02C18.32 16.26 18.89 15.39 19.31 14.41C19.73 13.41 19.94 12.33 19.94 11.17C19.94 10.03 19.73 8.96 19.31 7.96C18.89 6.94 18.31 6.05 17.57 5.29C16.83 4.53 15.97 3.94 14.99 3.52C14.01 3.08 12.96 2.86 11.84 2.86C10.7 2.86 9.64 3.08 8.66 3.52C7.68 3.96 6.82 4.56 6.08 5.32C5.34 6.08 4.77 6.97 4.37 7.99C3.97 8.99 3.77 10.06 3.77 11.2ZM37.8327 2.26L32.5527 10.75L30.8127 9.94C31.0727 9.8 31.3627 9.7 31.6827 9.64C32.0027 9.58 32.3227 9.55 32.6427 9.55C33.3827 9.51 34.1027 9.59 34.8027 9.79C35.5027 9.99 36.1327 10.32 36.6927 10.78C37.2527 11.24 37.6927 11.85 38.0127 12.61C38.3527 13.37 38.5227 14.31 38.5227 15.43C38.5227 16.83 38.2027 18.04 37.5627 19.06C36.9227 20.08 36.0727 20.87 35.0127 21.43C33.9727 21.97 32.8127 22.24 31.5327 22.24C30.5727 22.24 29.6127 22.05 28.6527 21.67C27.7127 21.27 26.9327 20.75 26.3127 20.11L27.7827 17.71C28.1627 18.15 28.6827 18.55 29.3427 18.91C30.0227 19.27 30.7227 19.45 31.4427 19.45C32.2027 19.45 32.8827 19.28 33.4827 18.94C34.1027 18.6 34.5927 18.12 34.9527 17.5C35.3327 16.86 35.5227 16.12 35.5227 15.28C35.5227 14.12 35.1827 13.21 34.5027 12.55C33.8427 11.89 32.9327 11.56 31.7727 11.56C31.1927 11.56 30.7027 11.61 30.3027 11.71C29.9027 11.79 29.5427 11.89 29.2227 12.01L29.1327 11.89L33.7827 4.66L34.6827 5.05H27.4527V2.26H37.8327Z" fill="white"/>
</svg>
