<svg width="40" height="23" viewBox="0 0 40 23" fill="none" xmlns="http://www.w3.org/2000/svg">
<path d="M0.77 11.17C0.77 9.67 1.05 8.26 1.61 6.94C2.19 5.6 2.99 4.42 4.01 3.4C5.03 2.36 6.2 1.55 7.52 0.969999C8.86 0.37 10.3 0.0699998 11.84 0.0699998C13.36 0.0699998 14.78 0.37 16.1 0.969999C17.44 1.55 18.62 2.36 19.64 3.4C20.68 4.42 21.49 5.6 22.07 6.94C22.65 8.26 22.94 9.67 22.94 11.17C22.94 12.71 22.65 14.15 22.07 15.49C21.49 16.83 20.68 18.01 19.64 19.03C18.62 20.03 17.44 20.82 16.1 21.4C14.78 21.96 13.36 22.24 11.84 22.24C10.3 22.24 8.86 21.96 7.52 21.4C6.2 20.84 5.03 20.06 4.01 19.06C2.99 18.06 2.19 16.89 1.61 15.55C1.05 14.21 0.77 12.75 0.77 11.17ZM3.77 11.2C3.77 12.34 3.98 13.41 4.4 14.41C4.82 15.39 5.4 16.26 6.14 17.02C6.88 17.78 7.74 18.38 8.72 18.82C9.7 19.24 10.76 19.45 11.9 19.45C13.02 19.45 14.07 19.24 15.05 18.82C16.03 18.38 16.88 17.78 17.6 17.02C18.32 16.26 18.89 15.39 19.31 14.41C19.73 13.41 19.94 12.33 19.94 11.17C19.94 10.03 19.73 8.96 19.31 7.96C18.89 6.94 18.31 6.05 17.57 5.29C16.83 4.53 15.97 3.94 14.99 3.52C14.01 3.08 12.96 2.86 11.84 2.86C10.7 2.86 9.64 3.08 8.66 3.52C7.68 3.96 6.82 4.56 6.08 5.32C5.34 6.08 4.77 6.97 4.37 7.99C3.97 8.99 3.77 10.06 3.77 11.2ZM25.1127 17.23V17.2L37.1427 2.02H37.1727V15.01H39.7227V17.23H37.1727V22H34.2627V17.23H25.1127ZM34.4427 8.59L29.3727 15.16L28.9227 15.01H34.2627V8.05L34.4427 8.59Z" fill="white"/>
</svg>
