<svg width="39" height="647" viewBox="0 0 39 647" fill="none" xmlns="http://www.w3.org/2000/svg">
<path d="M1.05879 22.4354C2.46279 22.1689 4.26958 21.6358 7.92917 20.2568C11.7614 18.8314 12.7741 18.2983 13.7408 17.1974C14.5809 16.2587 14.9261 15.1578 14.9261 13.7324L14.9261 9.2013L7.71052 9.2013C4.71839 9.2013 3.08424 9.29401 1.0588 9.56055L1.0588 -1.60721e-06C3.08424 0.266535 4.40767 0.359243 7.66448 0.359244L31.3483 0.359245C34.0872 0.359245 35.7099 0.266536 37.8274 0C37.7353 1.95846 37.7008 3.59245 37.7008 6.61706L37.7008 18.1708C37.7008 25.3673 34.0067 29.5392 27.6657 29.5392C24.5355 29.5392 22.0727 28.6469 20.4385 26.9202C19.4258 25.8077 18.9425 24.8806 18.2405 22.702C17.5385 24.9733 16.5258 25.9931 13.3956 27.4069C11.9916 28.079 10.4955 28.6932 5.73111 30.6981C4.49974 31.1848 3.39495 31.7178 1.05879 32.8303L1.05879 22.4354ZM22.4525 16.1197C22.4525 18.7387 24.0406 20.3379 26.5494 20.3379C29.0582 20.3379 30.2895 18.9125 30.2895 16.166L30.2895 9.18972L22.4525 9.18971L22.4525 16.1197Z" fill="url(#paint0_linear_2743_176)"/>
<path d="M12.0261 44.0712C8.45853 44.5116 6.57119 46.5975 6.57119 50.1089C6.57119 51.8819 7.1466 53.4464 8.20535 54.5936C8.82679 55.2658 9.31013 55.5671 10.4494 55.9263L8.29741 63.6559C6.00729 62.6361 4.99457 61.9639 3.76319 60.724C1.30045 58.1977 0.02304 54.64 0.0230401 50.2363C0.0230403 45.8327 1.25441 42.4604 3.76319 39.9341C6.41007 37.3151 10.1502 35.8897 14.5118 35.8897C23.235 35.8897 29.0006 41.5333 29.0006 50.0161C29.0006 56.9461 25.2605 61.7901 18.7008 63.343C17.2968 63.7022 15.444 63.876 12.9352 64.0035C12.7626 64.0035 12.4979 64.0035 12.0491 64.0499L12.0491 44.0596L12.0261 44.0712ZM18.1024 55.6134C20.9219 54.9876 22.4179 53.0871 22.4179 50.0161C22.4179 46.9452 21.0139 44.952 18.1024 44.1987L18.1024 55.6134Z" fill="url(#paint1_linear_2743_176)"/>
<path d="M18.1369 86.7171C19.4603 86.3231 20.0702 86.045 20.7377 85.4771C21.7504 84.5848 22.2798 83.3448 22.2798 81.7456C22.2798 78.1532 19.4603 76.0209 14.6154 76.0209C9.77044 76.0209 6.77832 78.2922 6.77832 81.8383C6.77832 83.5766 7.48031 85.1758 8.71169 86.0565C9.2871 86.4621 9.72441 86.6823 10.7371 86.8561L9.45972 95.0261C7.57238 94.5394 6.37553 94.0063 5.09812 93.1603C1.84131 90.9353 0.0345279 86.9025 0.0345281 81.7456C0.0345283 77.481 1.35797 73.8422 3.82072 71.397C6.3295 68.8244 10.2078 67.399 14.5233 67.399C23.3271 67.399 28.9661 72.9963 28.9661 81.6529C28.9661 88.4901 25.6172 93.2414 19.7595 94.7132L18.1254 86.7171L18.1369 86.7171Z" fill="url(#paint2_linear_2743_176)"/>
<path d="M14.5349 98.2709C23.3386 98.2709 28.9316 103.961 28.9316 112.93C28.9316 121.9 23.3386 127.59 14.6269 127.59C5.91524 127.59 0.0575856 121.726 0.057586 112.884C0.0575864 104.042 5.69659 98.2709 14.5464 98.2709L14.5349 98.2709ZM14.5694 106.754C9.67841 106.754 6.73232 109.06 6.73232 112.93C6.73232 116.801 9.59786 119.014 14.4773 119.014C19.3568 119.014 22.3144 116.743 22.3144 112.977C22.3144 109.21 19.4028 106.754 14.5694 106.754Z" fill="url(#paint3_linear_2743_176)"/>
<path d="M1.05878 132.121C3.08422 132.388 4.93703 132.48 7.7105 132.48L21.2671 132.48C24.616 132.48 26.1926 132.388 27.9188 132.121L27.9188 140.917L26.066 140.917C25.9509 140.917 25.7438 140.901 25.4446 140.87L25.0073 140.87C27.47 143.142 28.6208 145.842 28.6208 149.353C28.6208 151.659 28.0915 153.571 27.0327 155.043C26.4573 155.843 25.9279 156.283 24.8346 156.863C27.5161 159.621 28.6669 162.321 28.6669 166.191C28.6669 172.542 25.2374 175.787 18.5857 175.787L7.66446 175.787C4.93703 175.787 3.13025 175.879 1.05877 176.146L1.05878 166.91C3.13025 167.176 4.71837 167.269 7.7105 167.269L16.7789 167.269C20.0818 167.269 21.3592 166.296 21.3592 163.758C21.3592 161.486 19.5984 159.447 16.6523 158.334L7.66446 158.334C5.01758 158.334 3.17628 158.427 1.05878 158.694L1.05878 149.457C3.03818 149.724 4.891 149.817 7.7105 149.817L16.7789 149.817C18.6317 149.817 19.4603 149.643 20.2084 149.063C20.9104 148.577 21.3131 147.684 21.3131 146.618C21.3131 144.219 19.5984 142.18 16.5948 140.928L7.69899 140.928C4.92552 140.928 3.2108 141.021 1.04727 141.288L1.04727 132.133L1.05878 132.121Z" fill="url(#paint4_linear_2743_176)"/>
<path d="M1.05878 181.697C3.08422 181.963 4.93703 182.056 7.7105 182.056L21.2671 182.056C24.616 182.056 26.1926 181.963 27.9188 181.697L27.9188 190.492L26.066 190.492C25.9509 190.492 25.7438 190.477 25.4446 190.446L25.0073 190.446C27.47 192.717 28.6208 195.418 28.6208 198.929C28.6208 201.235 28.0915 203.147 27.0327 204.619C26.4573 205.419 25.9279 205.859 24.8346 206.438C27.5161 209.196 28.6669 211.897 28.6669 215.767C28.6669 222.118 25.2374 225.362 18.5857 225.362L7.66446 225.362C4.93703 225.362 3.13025 225.455 1.05877 225.722L1.05878 216.486C3.13025 216.752 4.71837 216.845 7.7105 216.845L16.7789 216.845C20.0818 216.845 21.3592 215.871 21.3592 213.334C21.3592 211.062 19.5984 209.023 16.6523 207.91L7.66446 207.91C5.01758 207.91 3.17628 208.003 1.05878 208.269L1.05878 199.033C3.03818 199.3 4.891 199.392 7.7105 199.392L16.7789 199.392C18.6317 199.392 19.4603 199.219 20.2084 198.639C20.9104 198.153 21.3131 197.26 21.3131 196.194C21.3131 193.795 19.5984 191.756 16.5948 190.504L7.69899 190.504C4.92552 190.504 3.2108 190.597 1.04727 190.863L1.04727 181.708L1.05878 181.697Z" fill="url(#paint5_linear_2743_176)"/>
<path d="M12.0261 238.295C8.45853 238.736 6.57119 240.822 6.57119 244.333C6.57119 246.106 7.1466 247.67 8.20535 248.818C8.82679 249.49 9.31013 249.791 10.4494 250.15L8.29741 257.88C6.00729 256.86 4.99457 256.188 3.76319 254.948C1.30045 252.422 0.02304 248.864 0.0230401 244.46C0.0230403 240.057 1.25441 236.684 3.76319 234.158C6.41007 231.539 10.1502 230.114 14.5118 230.114C23.235 230.114 29.0006 235.757 29.0006 244.24C29.0006 251.17 25.2605 256.014 18.7008 257.567C17.2968 257.926 15.444 258.1 12.9352 258.228C12.7626 258.228 12.4979 258.228 12.0491 258.274L12.0491 238.284L12.0261 238.295ZM18.1024 249.837C20.9219 249.212 22.4179 247.311 22.4179 244.24C22.4179 241.169 21.0139 239.176 18.1024 238.423L18.1024 249.837Z" fill="url(#paint6_linear_2743_176)"/>
<path d="M1.05873 262.77C3.13021 263.037 4.97151 263.129 7.71046 263.129L21.2671 263.129C24.3052 263.129 26.1581 263.037 27.9188 262.77L27.9188 271.612L26.066 271.612C25.8013 271.612 25.1453 271.566 24.8346 271.566C27.4815 274.37 28.5748 277.07 28.5748 280.721C28.5748 283.792 27.7347 286.225 26.112 287.871C24.3513 289.644 22.1992 290.397 18.7123 290.397L7.66442 290.397C5.10961 290.397 2.91155 290.525 1.05873 290.757L1.05873 281.52C3.17624 281.787 5.01754 281.88 7.71046 281.88L16.7329 281.88C18.4936 281.88 19.2416 281.706 19.9897 281.173C20.7837 280.593 21.221 279.574 21.221 278.241C21.221 275.749 19.679 273.536 16.5948 271.624L7.69895 271.624C5.19017 271.624 3.33735 271.717 1.04723 271.983L1.04723 262.793L1.05873 262.77Z" fill="url(#paint7_linear_2743_176)"/>
<path d="M2.46273 317.063C2.72742 317.063 3.03814 317.063 3.42942 317.109C1.04723 314.131 0.264671 311.871 0.264671 308.139C0.264671 300.051 5.63899 295.172 14.5348 295.172C19.1151 295.172 22.7747 296.504 25.2834 298.996C27.5275 301.267 28.7129 304.373 28.7129 308.012C28.7129 311.651 27.7922 314.189 25.4561 317.121C26.112 317.074 26.5148 317.074 27.1247 317.074L30.7843 317.074C33.8685 317.074 35.7559 316.981 37.7007 316.715L37.7007 325.824C35.8479 325.557 33.7419 325.464 30.7843 325.464L7.97515 325.464C5.02906 325.464 3.22227 325.557 1.05874 325.824L1.05874 317.074L2.46273 317.074L2.46273 317.063ZM14.4888 303.771C11.98 303.771 9.95455 304.477 8.67714 305.81C7.61839 306.876 7.00846 308.475 7.00846 310.121C7.00846 314.073 10.2653 316.958 14.6269 316.958C18.9885 316.958 21.9806 314.119 21.9806 310.075C21.9806 306.03 19.1151 303.771 14.5003 303.771L14.4888 303.771Z" fill="url(#paint8_linear_2743_176)"/>
<path d="M12.0261 338.432C8.45853 338.872 6.57119 340.958 6.57119 344.469C6.57119 346.242 7.1466 347.807 8.20535 348.954C8.82679 349.626 9.31013 349.928 10.4494 350.287L8.29741 358.016C6.00729 356.997 4.99457 356.325 3.76319 355.085C1.30045 352.558 0.02304 349.001 0.0230401 344.597C0.0230403 340.193 1.25441 336.821 3.76319 334.295C6.41007 331.676 10.1502 330.25 14.5118 330.25C23.235 330.25 29.0006 335.894 29.0006 344.377C29.0006 351.307 25.2605 356.151 18.7008 357.704C17.2968 358.063 15.444 358.237 12.9352 358.364C12.7626 358.364 12.4979 358.364 12.0491 358.41L12.0491 338.42L12.0261 338.432ZM18.1024 349.974C20.9219 349.348 22.4179 347.448 22.4179 344.377C22.4179 341.306 21.0139 339.313 18.1024 338.559L18.1024 349.974Z" fill="url(#paint9_linear_2743_176)"/>
<path d="M2.46273 383.65C2.72742 383.65 3.03814 383.65 3.42942 383.697C1.04723 380.718 0.264671 378.459 0.264671 374.727C0.264671 366.638 5.63899 361.76 14.5348 361.76C19.1151 361.76 22.7747 363.092 25.2834 365.584C27.5275 367.855 28.7129 370.961 28.7129 374.6C28.7129 378.238 27.7922 380.776 25.4561 383.708C26.112 383.662 26.5148 383.662 27.1247 383.662L30.7843 383.662C33.8685 383.662 35.7559 383.569 37.7007 383.303L37.7007 392.411C35.8479 392.145 33.7419 392.052 30.7843 392.052L7.97515 392.052C5.02906 392.052 3.22227 392.145 1.05874 392.411L1.05874 383.662L2.46273 383.662L2.46273 383.65ZM14.4888 370.37C11.98 370.37 9.95455 371.077 8.67714 372.409C7.61839 373.476 7.00846 375.075 7.00846 376.72C7.00846 380.672 10.2653 383.558 14.6269 383.558C18.9885 383.558 21.9806 380.718 21.9806 376.674C21.9806 372.63 19.1151 370.37 14.5003 370.37L14.4888 370.37Z" fill="url(#paint10_linear_2743_176)"/>
<path d="M8.72319 423.318C4.58025 423.318 3.00363 423.364 1.05875 423.677L1.05875 414.128C2.99212 414.441 4.75287 414.522 8.58509 414.522L31.3943 414.522C34.2943 414.522 35.7559 414.43 37.8273 414.163C37.7353 415.982 37.7008 417.234 37.7008 420.653L37.7008 433.493C37.7008 437.398 37.7468 438.87 38.0115 440.956L29.645 440.956C29.8637 438.997 29.9558 437.271 29.9558 433.539L29.9558 423.318L22.7401 423.318L22.7401 431.673C22.7401 435.138 22.8322 436.83 23.0509 438.777L14.9031 438.777C15.1217 436.819 15.2138 435.046 15.2138 431.673L15.2138 423.318L8.7462 423.318L8.72319 423.318Z" fill="url(#paint11_linear_2743_176)"/>
<path d="M12.0261 452.243C8.45853 452.683 6.57119 454.769 6.57119 458.281C6.57119 460.054 7.1466 461.618 8.20535 462.765C8.82679 463.437 9.31013 463.739 10.4494 464.098L8.29741 471.828C6.00729 470.808 4.99457 470.136 3.76319 468.896C1.30045 466.369 0.02304 462.812 0.0230401 458.408C0.0230403 454.004 1.25441 450.632 3.76319 448.106C6.41007 445.487 10.1502 444.061 14.5118 444.061C23.235 444.061 29.0006 449.705 29.0006 458.188C29.0006 465.118 25.2605 469.962 18.7008 471.515C17.2968 471.874 15.444 472.048 12.9352 472.175C12.7626 472.175 12.4979 472.175 12.0491 472.222L12.0491 452.231L12.0261 452.243ZM18.1024 463.797C20.9219 463.171 22.4179 461.27 22.4179 458.199C22.4179 455.128 21.0139 453.135 18.1024 452.382L18.1024 463.797Z" fill="url(#paint12_linear_2743_176)"/>
<path d="M19.4603 494.53C21.5778 494.53 22.5445 493.243 22.5445 490.311C22.5445 487.379 21.6239 485.954 19.4603 485.293L20.8298 476.811C23.4307 477.703 24.8346 478.676 26.1581 480.542C27.8268 482.941 28.6669 486.232 28.6669 490.532C28.6669 493.823 28.0454 497.021 27.1248 498.748C25.5827 501.587 23.166 502.839 19.1956 502.839L7.30771 502.839C4.62631 502.839 3.03818 502.931 1.05878 503.151L1.05878 494.53L3.08421 494.53C1.19687 492.038 0.437335 489.558 0.437336 485.908C0.437336 482.535 1.2314 479.998 2.86555 478.224C4.31558 476.625 6.43309 475.779 8.8498 475.779C11.6233 475.779 13.8213 476.892 15.2829 479.024C16.871 481.295 17.7917 484.262 18.1484 488.26C18.321 489.998 18.3671 491.331 18.4591 494.518L19.4718 494.518L19.4603 494.53ZM12.8086 494.53C12.7165 490.578 12.4979 488.666 11.9225 486.846C11.3931 485.247 10.2883 484.274 9.01092 484.274C7.42279 484.274 6.50214 485.606 6.50214 487.913C6.50214 489.732 7.1581 491.737 8.17082 492.93C9.05695 493.95 10.2423 494.53 11.5657 494.53L12.7971 494.53L12.8086 494.53Z" fill="url(#paint13_linear_2743_176)"/>
<path d="M28.8395 512.306C31.0375 512.306 32.7983 512.214 34.8698 511.947L34.8698 521.009C33.063 520.789 30.9455 520.65 28.8395 520.65L27.9188 520.65L27.9188 522.249C27.9188 524.208 27.9649 525.228 28.1375 526.607L20.8298 526.607C21.0024 525.274 21.0945 524.115 21.0945 522.516L21.0945 520.65L9.81647 520.65C8.58509 520.65 7.96365 520.87 7.57237 521.45C7.26165 521.936 7.08903 522.643 7.08903 523.489C7.08903 524.648 7.30769 525.494 7.8831 526.595L1.19685 527.267C0.575408 525.262 0.310722 523.536 0.310722 521.137C0.310722 518.112 0.794063 516.026 1.85282 514.601C3.13022 512.909 4.62629 512.295 7.61841 512.295L21.0945 512.295L21.0945 510.603C21.0945 509.177 21.0024 508.03 20.8298 506.744L28.1835 506.744C28.0109 508.03 27.9188 509.143 27.9188 510.696L27.9188 512.295L28.8395 512.295L28.8395 512.306Z" fill="url(#paint14_linear_2743_176)"/>
<path d="M27.9188 558.95C25.8474 558.684 24.006 558.591 21.3131 558.591L7.71048 558.591C4.67232 558.591 2.86554 558.684 1.10479 558.95L1.10479 550.108L3.00364 550.108C3.22229 550.108 3.88977 550.108 4.18898 550.155C1.46155 547.223 0.402795 544.696 0.402795 540.918C0.402795 537.94 1.24289 535.541 2.86554 533.861C4.62629 532.088 6.77832 531.335 10.2653 531.335L21.3131 531.335C23.8679 531.335 26.066 531.207 27.9188 530.976L27.9188 540.212C25.8013 539.945 23.96 539.852 21.3131 539.852L12.2907 539.852C10.4839 539.852 9.68989 540.026 8.98789 540.559C8.19382 541.185 7.75651 542.158 7.75651 543.445C7.75651 545.89 9.47123 548.37 12.2907 550.108L21.3131 550.108C23.7759 550.108 25.6287 550.016 27.9188 549.749L27.9188 558.939L27.9188 558.95Z" fill="url(#paint15_linear_2743_176)"/>
<path d="M19.9897 584.538C20.6112 582.498 20.8298 581.386 20.8298 580.007C20.8298 577.735 20.0357 576.009 18.4476 574.722C17.3889 573.876 16.4682 573.563 14.5233 573.39L7.65295 573.39C4.83345 573.39 3.16477 573.482 1.04726 573.749L1.04726 564.559C3.24533 564.826 4.83345 564.918 7.69899 564.918L21.2556 564.918C24.4664 564.918 26.0085 564.826 27.9073 564.559L27.9073 573.401L24.4319 573.401C27.2514 575.58 28.4367 578.245 28.4367 582.29C28.4367 583.715 28.3446 584.596 27.9073 586.682L19.9782 584.549L19.9897 584.538Z" fill="url(#paint16_linear_2743_176)"/>
<path d="M12.0261 597.285C8.45853 597.725 6.57119 599.811 6.57119 603.323C6.57119 605.096 7.1466 606.66 8.20535 607.808C8.82679 608.48 9.31013 608.781 10.4494 609.14L8.29741 616.87C6.00729 615.85 4.99457 615.178 3.76319 613.938C1.30045 611.412 0.02304 607.854 0.0230401 603.45C0.0230403 599.047 1.25441 595.674 3.76319 593.148C6.41007 590.529 10.1502 589.104 14.5118 589.104C23.235 589.104 29.0006 594.747 29.0006 603.23C29.0006 610.16 25.2605 615.004 18.7008 616.557C17.2968 616.916 15.444 617.09 12.9352 617.217C12.7626 617.217 12.4979 617.217 12.0491 617.264L12.0491 597.274L12.0261 597.285ZM18.1024 608.839C20.9219 608.213 22.4179 606.313 22.4179 603.242C22.4179 600.171 21.0139 598.177 18.1024 597.424L18.1024 608.839Z" fill="url(#paint17_linear_2743_176)"/>
<path d="M10.0351 629.536C7.74497 629.976 6.73225 631.494 6.73225 634.461C6.73225 637.127 7.48028 638.633 8.84975 638.633C9.50572 638.633 10.0811 638.274 10.4379 637.66C10.7946 637.034 10.9673 636.466 11.4506 634.021C12.1066 630.649 12.5554 628.91 13.0387 627.45C13.8328 625.318 14.8455 623.858 16.169 623.012C17.3543 622.305 18.8504 621.899 20.3464 621.899C25.6287 621.899 28.851 626.384 28.851 633.801C28.851 638.019 27.9303 641.171 26.0315 643.257C24.754 644.717 23.4766 645.436 21.0139 646.142L20.0932 637.567C21.9 637.347 22.6941 636.234 22.6941 633.835C22.6941 631.437 21.9461 630.104 20.8067 630.104C19.6674 630.104 19.1726 631.043 18.2059 635.435C17.2852 639.792 16.8825 641.159 16.0884 642.724C14.6844 645.609 12.5209 646.988 9.35612 646.988C7.01996 646.988 4.91396 646.189 3.49846 644.717C1.38096 642.585 0.287679 638.946 0.287679 634.195C0.287679 628.597 1.78374 624.646 4.6953 622.513C5.92668 621.621 6.98543 621.181 9.10294 620.74L10.0696 629.536L10.0351 629.536Z" fill="url(#paint18_linear_2743_176)"/>
<defs>
<linearGradient id="paint0_linear_2743_176" x1="2.09453" y1="-1.05456" x2="32.5021" y2="29.1421" gradientUnits="userSpaceOnUse">
<stop stop-color="#6D4799"/>
<stop offset="1" stop-color="#E6AE20"/>
</linearGradient>
<linearGradient id="paint1_linear_2743_176" x1="3.93582" y1="39.7371" x2="24.7252" y2="60.3938" gradientUnits="userSpaceOnUse">
<stop stop-color="#6D4799"/>
<stop offset="1" stop-color="#E6AE20"/>
</linearGradient>
<linearGradient id="paint2_linear_2743_176" x1="4.01635" y1="71.2" x2="24.9795" y2="92.0178" gradientUnits="userSpaceOnUse">
<stop stop-color="#6D4799"/>
<stop offset="1" stop-color="#E6AE20"/>
</linearGradient>
<linearGradient id="paint3_linear_2743_176" x1="3.95885" y1="102.234" x2="25.2697" y2="123.397" gradientUnits="userSpaceOnUse">
<stop stop-color="#6D4799"/>
<stop offset="1" stop-color="#E6AE20"/>
</linearGradient>
<linearGradient id="paint4_linear_2743_176" x1="-3.15322" y1="136.362" x2="30.0819" y2="169.367" gradientUnits="userSpaceOnUse">
<stop stop-color="#6D4799"/>
<stop offset="1" stop-color="#E6AE20"/>
</linearGradient>
<linearGradient id="paint5_linear_2743_176" x1="-3.15322" y1="185.938" x2="30.082" y2="218.954" gradientUnits="userSpaceOnUse">
<stop stop-color="#6D4799"/>
<stop offset="1" stop-color="#E6AE20"/>
</linearGradient>
<linearGradient id="paint6_linear_2743_176" x1="3.93582" y1="233.961" x2="24.7252" y2="254.618" gradientUnits="userSpaceOnUse">
<stop stop-color="#6D4799"/>
<stop offset="1" stop-color="#E6AE20"/>
</linearGradient>
<linearGradient id="paint7_linear_2743_176" x1="0.828571" y1="263.002" x2="25.9868" y2="287.997" gradientUnits="userSpaceOnUse">
<stop stop-color="#6D4799"/>
<stop offset="1" stop-color="#E6AE20"/>
</linearGradient>
<linearGradient id="paint8_linear_2743_176" x1="1.76073" y1="300.908" x2="32.2958" y2="331.231" gradientUnits="userSpaceOnUse">
<stop stop-color="#6D4799"/>
<stop offset="1" stop-color="#E6AE20"/>
</linearGradient>
<linearGradient id="paint9_linear_2743_176" x1="3.93582" y1="334.098" x2="24.7252" y2="354.754" gradientUnits="userSpaceOnUse">
<stop stop-color="#6D4799"/>
<stop offset="1" stop-color="#E6AE20"/>
</linearGradient>
<linearGradient id="paint10_linear_2743_176" x1="1.76073" y1="367.496" x2="32.2959" y2="397.831" gradientUnits="userSpaceOnUse">
<stop stop-color="#6D4799"/>
<stop offset="1" stop-color="#E6AE20"/>
</linearGradient>
<linearGradient id="paint11_linear_2743_176" x1="7.57237" y1="407.569" x2="39.5907" y2="439.354" gradientUnits="userSpaceOnUse">
<stop stop-color="#6D4799"/>
<stop offset="1" stop-color="#E6AE20"/>
</linearGradient>
<linearGradient id="paint12_linear_2743_176" x1="3.93582" y1="447.92" x2="24.7252" y2="468.566" gradientUnits="userSpaceOnUse">
<stop stop-color="#6D4799"/>
<stop offset="1" stop-color="#E6AE20"/>
</linearGradient>
<linearGradient id="paint13_linear_2743_176" x1="1.5191" y1="479.569" x2="24.2553" y2="502.147" gradientUnits="userSpaceOnUse">
<stop stop-color="#6D4799"/>
<stop offset="1" stop-color="#E6AE20"/>
</linearGradient>
<linearGradient id="paint14_linear_2743_176" x1="7.41126" y1="508.922" x2="27.2851" y2="528.659" gradientUnits="userSpaceOnUse">
<stop stop-color="#6D4799"/>
<stop offset="1" stop-color="#E6AE20"/>
</linearGradient>
<linearGradient id="paint15_linear_2743_176" x1="3.17626" y1="533.537" x2="28.3344" y2="558.532" gradientUnits="userSpaceOnUse">
<stop stop-color="#6D4799"/>
<stop offset="1" stop-color="#E6AE20"/>
</linearGradient>
<linearGradient id="paint16_linear_2743_176" x1="5.48942" y1="560.086" x2="30.0681" y2="584.494" gradientUnits="userSpaceOnUse">
<stop stop-color="#6D4799"/>
<stop offset="1" stop-color="#E6AE20"/>
</linearGradient>
<linearGradient id="paint17_linear_2743_176" x1="3.93582" y1="592.963" x2="24.7252" y2="613.608" gradientUnits="userSpaceOnUse">
<stop stop-color="#6D4799"/>
<stop offset="1" stop-color="#E6AE20"/>
</linearGradient>
<linearGradient id="paint18_linear_2743_176" x1="3.67108" y1="623.383" x2="24.8776" y2="644.454" gradientUnits="userSpaceOnUse">
<stop stop-color="#6D4799"/>
<stop offset="1" stop-color="#E6AE20"/>
</linearGradient>
</defs>
</svg>
