<svg width="40" height="357" viewBox="0 0 40 357" fill="none" xmlns="http://www.w3.org/2000/svg">
<path d="M25.8877 27.7182C30.0573 26.7789 32.1191 24.1491 32.1191 19.8813C32.1191 13.8328 27.7205 10.3088 20.1604 10.3088C12.6002 10.3088 8.1558 13.9755 8.1558 20.1293C8.1558 22.8568 9.20963 25.186 11.0424 26.6287C12.1421 27.4702 13.0584 27.8158 14.9828 28.1164L13.5624 38.4327C9.66782 37.4935 7.42269 36.3965 5.17756 34.3152C1.92441 31.2421 0.183291 26.4333 0.183291 20.4298C0.183292 14.4264 1.92441 9.27195 5.22338 5.748C8.65981 2.0813 14.0206 -1.13559e-06 20.1604 -8.67218e-07C26.3001 -5.98841e-07 31.6609 2.0813 35.2348 6.00347C38.3047 9.42222 40 14.4339 40 20.2345C40 26.6287 37.984 31.6403 33.9977 34.8637C32.1191 36.4491 30.4238 37.2907 27.7205 37.9368L25.8877 27.7257L25.8877 27.7182Z" fill="url(#paint0_linear_2743_177)"/>
<path d="M15.0744 42.4526C24.2382 42.4526 30.0573 48.8017 30.0573 58.8175C30.0572 68.8334 24.2382 75.1825 15.1661 75.1825C6.09391 75.1825 -1.25887e-05 68.638 -1.21575e-05 58.7725C-1.17262e-05 48.9069 5.86482 42.4601 15.0744 42.4601L15.0744 42.4526ZM15.1203 51.9199C10.0343 51.9199 6.96448 54.4971 6.96448 58.81C6.96448 63.1229 9.94271 65.6024 15.0286 65.6024C20.1145 65.6024 23.1844 63.0703 23.1844 58.8551C23.1844 54.6399 20.1603 51.9124 15.1203 51.9124L15.1203 51.9199Z" fill="url(#paint1_linear_2743_177)"/>
<path d="M1.05386 80.2392C3.20736 80.5397 5.13175 80.6374 7.97253 80.6374L22.0848 80.6374C25.2463 80.6374 27.1707 80.5397 29.0035 80.2392L29.0034 90.1047L27.0791 90.1047C26.8041 90.1047 26.1169 90.0521 25.7961 90.0521C28.5453 93.1778 29.6907 96.1983 29.6907 100.263C29.6907 103.682 28.8202 106.409 27.1249 108.243C25.2921 110.226 23.047 111.068 19.4273 111.068L7.92671 111.068C5.26921 111.068 2.97826 111.218 1.05386 111.466L1.05386 101.15C3.25317 101.45 5.17757 101.548 7.97253 101.548L17.3654 101.548C19.1982 101.548 19.9771 101.353 20.756 100.752C21.5808 100.105 22.039 98.9634 22.039 97.4757C22.039 94.6956 20.4353 92.216 17.228 90.0897L7.97253 90.0897C5.36085 90.0897 3.43645 90.1873 1.05386 90.4879L1.05386 80.2241L1.05386 80.2392Z" fill="url(#paint2_linear_2743_177)"/>
<path d="M29.9657 121.595C32.2566 121.595 34.0894 121.497 36.2429 121.197L36.2429 131.31C34.3643 131.062 32.165 130.912 29.9657 130.912L29.0035 130.912L29.0035 132.7C29.0035 134.879 29.0493 136.021 29.2326 137.561L21.6266 137.561C21.8099 136.074 21.9015 134.781 21.9015 133.001L21.9015 130.919L10.1718 130.919C8.88892 130.919 8.24745 131.167 7.83508 131.813C7.51435 132.362 7.33107 133.151 7.33107 134.098C7.33107 135.39 7.56017 136.329 8.15581 137.569L1.19133 138.313C0.549857 136.081 0.274947 134.15 0.274947 131.468C0.274948 128.094 0.778957 125.765 1.87861 124.179C3.20736 122.294 4.76521 121.602 7.8809 121.602L21.9015 121.602L21.9015 119.716C21.9015 118.131 21.8099 116.839 21.6266 115.403L29.2784 115.403C29.0951 116.839 29.0035 118.078 29.0035 119.814L29.0035 121.602L29.9657 121.602L29.9657 121.595Z" fill="url(#paint3_linear_2743_177)"/>
<path d="M20.756 164.784C21.3975 162.499 21.6266 161.26 21.6266 159.727C21.6266 157.195 20.8019 155.264 19.1524 153.829C18.0527 152.889 17.0905 152.536 15.0745 152.341L7.92672 152.341C4.9943 152.341 3.25318 152.439 1.05387 152.739L1.05387 142.475C3.34482 142.776 4.9943 142.874 7.97254 142.874L22.0848 142.874C25.4296 142.874 27.0332 142.776 29.0035 142.475L29.0035 152.341L25.3838 152.341C28.3162 154.768 29.5533 157.743 29.5533 162.259C29.5533 163.844 29.4616 164.836 29.0035 167.165L20.756 164.784Z" fill="url(#paint4_linear_2743_177)"/>
<path d="M20.2062 191.067C22.4055 191.067 23.4135 189.632 23.4135 186.356C23.4135 183.08 22.4513 181.494 20.2062 180.75L21.6266 171.283C24.3299 172.275 25.7961 173.364 27.1707 175.446C28.9118 178.121 29.7823 181.795 29.7823 186.604C29.7823 190.27 29.1409 193.847 28.1787 195.778C26.575 198.949 24.055 200.339 19.9313 200.339L7.56014 200.339C4.76518 200.339 3.11569 200.436 1.05384 200.684L1.05384 191.067L3.16151 191.067C1.19129 188.287 0.412372 185.514 0.412372 181.449C0.412372 177.677 1.23711 174.852 2.93242 172.868C4.44444 171.08 6.64375 170.141 9.1638 170.141C12.0504 170.141 14.3413 171.381 15.8534 173.763C17.5029 176.295 18.4651 179.616 18.8316 184.079C19.0149 186.01 19.0607 187.498 19.1523 191.067L20.2062 191.067ZM13.2875 191.067C13.1959 186.656 12.9668 184.522 12.3711 182.486C11.8213 180.698 10.6758 179.608 9.34708 179.608C7.69759 179.608 6.73539 181.096 6.73539 183.673C6.73539 185.709 7.42268 187.941 8.47652 189.278C9.3929 190.421 10.63 191.067 12.0046 191.067L13.2875 191.067Z" fill="url(#paint5_linear_2743_177)"/>
<path d="M18.8316 227.268C20.2062 226.825 20.8476 226.524 21.5349 225.878C22.5888 224.886 23.1386 223.496 23.1386 221.715C23.1386 217.703 20.2062 215.321 15.1661 215.321C10.126 215.321 7.01031 217.853 7.01031 221.813C7.01031 223.744 7.74341 225.532 9.02635 226.524C9.62199 226.967 10.0802 227.215 11.134 227.418L9.80527 236.54C7.83505 235.991 6.59794 235.398 5.26919 234.458C1.87858 231.979 4.77057e-06 227.463 5.02182e-06 221.715C5.22972e-06 216.959 1.37458 212.887 3.94044 210.159C6.55212 207.281 10.5842 205.696 15.0745 205.696C24.2383 205.696 30.1031 211.94 30.1031 221.61C30.1031 229.244 26.6208 234.549 20.5269 236.187L18.8316 227.26L18.8316 227.268Z" fill="url(#paint6_linear_2743_177)"/>
<path d="M29.9657 245.368C32.2566 245.368 34.0894 245.271 36.2429 244.97L36.2429 255.084C34.3643 254.836 32.165 254.685 29.9657 254.685L29.0035 254.685L29.0035 256.474C29.0035 258.653 29.0493 259.795 29.2326 261.335L21.6266 261.335C21.8099 259.847 21.9015 258.555 21.9015 256.774L21.9015 254.693L10.1718 254.693C8.88892 254.693 8.24745 254.941 7.83508 255.587C7.51435 256.136 7.33107 256.925 7.33107 257.871C7.33107 259.164 7.56017 260.103 8.15581 261.343L1.19133 262.086C0.549857 259.855 0.274947 257.924 0.274947 255.241C0.274948 251.868 0.778957 249.539 1.87861 247.953C3.20736 246.067 4.76521 245.376 7.8809 245.376L21.9015 245.376L21.9015 243.49C21.9015 241.905 21.8099 240.612 21.6266 239.177L29.2784 239.177C29.0951 240.612 29.0035 241.852 29.0035 243.588L29.0035 245.376L29.9657 245.376L29.9657 245.368Z" fill="url(#paint7_linear_2743_177)"/>
<path d="M39.1752 322.181C37.205 321.881 35.5555 321.783 32.2566 321.783L16.4948 321.783C6.04809 321.783 0.137446 314.991 0.137447 303.036C0.137447 296.89 1.74111 291.878 4.62771 288.903C7.46849 286.025 11.4547 284.538 16.5865 284.538L32.2566 284.538C35.4181 284.538 37.4341 284.44 39.1752 284.139L39.1752 294.846C37.4799 294.546 35.6472 294.448 32.2566 294.448L16.4948 294.448C10.7216 294.448 7.9725 297.273 7.9725 303.074C7.9725 308.874 10.7216 311.85 16.4948 311.85L32.2566 311.85C35.693 311.85 37.1134 311.752 39.1752 311.452L39.1752 322.159L39.1752 322.181Z" fill="url(#paint8_linear_2743_177)"/>
<path d="M10.4009 337.509C8.01834 338.005 6.9645 339.688 6.9645 343.017C6.9645 345.992 7.74342 347.675 9.16381 347.675C9.8511 347.675 10.4467 347.277 10.8133 346.586C11.1798 345.895 11.3631 345.248 11.8671 342.521C12.5544 338.749 13.0126 336.818 13.5166 335.18C14.3414 332.798 15.3952 331.16 16.7698 330.221C18.0069 329.425 19.5647 328.981 21.1226 328.981C26.6209 328.981 29.9656 333.993 29.9656 342.273C29.9656 346.984 29.0034 350.508 27.0332 352.837C25.7045 354.475 24.3757 355.264 21.8099 356.061L20.8477 346.488C22.7262 346.24 23.551 345 23.551 342.326C23.551 339.651 22.7721 338.163 21.5808 338.163C20.3895 338.163 19.8855 339.207 18.8774 344.114C17.9152 348.975 17.5029 350.508 16.6781 352.244C15.2119 355.467 12.9668 357 9.66782 357C7.23941 357 5.0401 356.106 3.57389 354.468C1.37458 352.086 0.229106 348.021 0.229106 342.716C0.229107 336.465 1.78695 332.054 4.81101 329.672C6.09394 328.681 7.19359 328.185 9.39291 327.689L10.4009 337.509Z" fill="url(#paint9_linear_2743_177)"/>
<defs>
<linearGradient id="paint0_linear_2743_177" x1="5.39139" y1="5.56767" x2="34.1577" y2="34.804" gradientUnits="userSpaceOnUse">
<stop stop-color="#6D4799"/>
<stop offset="1" stop-color="#E6AE20"/>
</linearGradient>
<linearGradient id="paint1_linear_2743_177" x1="3.52805" y1="47.3967" x2="26.2766" y2="70.517" gradientUnits="userSpaceOnUse">
<stop stop-color="#6D4799"/>
<stop offset="1" stop-color="#E6AE20"/>
</linearGradient>
<linearGradient id="paint2_linear_2743_177" x1="0.106935" y1="81.1708" x2="26.9423" y2="108.452" gradientUnits="userSpaceOnUse">
<stop stop-color="#6D4799"/>
<stop offset="1" stop-color="#E6AE20"/>
</linearGradient>
<linearGradient id="paint3_linear_2743_177" x1="7.37689" y1="118.597" x2="27.9394" y2="139.488" gradientUnits="userSpaceOnUse">
<stop stop-color="#6D4799"/>
<stop offset="1" stop-color="#E6AE20"/>
</linearGradient>
<linearGradient id="paint4_linear_2743_177" x1="5.43722" y1="138.162" x2="31.529" y2="164.681" gradientUnits="userSpaceOnUse">
<stop stop-color="#6D4799"/>
<stop offset="1" stop-color="#E6AE20"/>
</linearGradient>
<linearGradient id="paint5_linear_2743_177" x1="0.870563" y1="174.86" x2="25.1142" y2="199.499" gradientUnits="userSpaceOnUse">
<stop stop-color="#6D4799"/>
<stop offset="1" stop-color="#E6AE20"/>
</linearGradient>
<linearGradient id="paint6_linear_2743_177" x1="3.60443" y1="210.467" x2="25.9397" y2="233.175" gradientUnits="userSpaceOnUse">
<stop stop-color="#6D4799"/>
<stop offset="1" stop-color="#E6AE20"/>
</linearGradient>
<linearGradient id="paint7_linear_2743_177" x1="7.37689" y1="242.37" x2="27.9394" y2="263.261" gradientUnits="userSpaceOnUse">
<stop stop-color="#6D4799"/>
<stop offset="1" stop-color="#E6AE20"/>
</linearGradient>
<linearGradient id="paint8_linear_2743_177" x1="7.29285" y1="286.288" x2="40.9199" y2="320.465" gradientUnits="userSpaceOnUse">
<stop stop-color="#6D4799"/>
<stop offset="1" stop-color="#E6AE20"/>
</linearGradient>
<linearGradient id="paint9_linear_2743_177" x1="3.20734" y1="331.183" x2="25.7982" y2="354.143" gradientUnits="userSpaceOnUse">
<stop stop-color="#6D4799"/>
<stop offset="1" stop-color="#E6AE20"/>
</linearGradient>
</defs>
</svg>
