<svg width="17" height="22" viewBox="0 0 17 22" fill="none" xmlns="http://www.w3.org/2000/svg">
<path d="M11.5767 8.71422L9.09468 1.11063C8.94568 0.655833 8.05534 0.655833 7.90635 1.11063L5.4243 8.7129C5.3807 8.84472 5.25714 8.95545 5.08634 9.01346L0.35483 10.5993C-0.112143 10.7562 -0.119411 11.2347 0.342111 11.3981L5.09906 13.0947C5.26259 13.1527 5.3807 13.2608 5.42249 13.3887L7.90816 20.8934C8.05716 21.3456 8.94568 21.3456 9.09468 20.8934L11.5804 13.3887C11.6221 13.2608 11.7421 13.1527 11.9038 13.0947L16.6607 11.3981C17.1223 11.2334 17.1132 10.7548 16.648 10.5993L11.9165 9.01346C11.7457 8.95677 11.6221 8.84604 11.5785 8.7129L11.5767 8.71422Z" fill="url(#paint0_linear_1_47)"/>
<defs>
<linearGradient id="paint0_linear_1_47" x1="1.31967" y1="16.211" x2="11.2246" y2="2.55835" gradientUnits="userSpaceOnUse">
<stop stop-color="#6D4799"/>
<stop offset="1" stop-color="#F6CE53"/>
</linearGradient>
</defs>
</svg>
