<svg width="40" height="516" viewBox="0 0 40 516" fill="none" xmlns="http://www.w3.org/2000/svg">
<path d="M7.29368 28.2793C8.52208 28.1137 9.86565 27.8144 11.4012 27.3942L22.6871 24.1975C24.1843 23.7773 25.9501 23.4398 28.4837 23.0195C26.9098 22.7648 24.4914 22.2617 22.6871 21.7587L11.3628 18.6512C9.44339 18.1036 8.33014 17.8552 7.29368 17.7279L7.29368 9.367C8.40692 9.15686 9.21306 8.94672 11.4395 8.31632L34.4722 1.59831C36.4299 1.00611 38.1958 0.420273 39.2322 0L39.2322 9.5835C37.8503 9.62808 36.6219 9.83821 35.0096 10.1693L23.3397 12.8565C22.7639 12.9839 20.9597 13.2768 17.9271 13.7799C21.1516 14.4103 22.5336 14.7032 23.3397 14.9579L35.2399 18.3201C36.9674 18.8231 38.1574 19.0779 39.2322 19.2434L39.2322 26.7256C38.2342 26.8911 37.1593 27.1458 35.3551 27.6935L23.5317 31.1002C22.3033 31.4377 21.0365 31.7306 17.9271 32.2783C18.4133 32.3334 19.1939 32.4459 20.2687 32.6158C21.1132 32.7431 22.9559 33.036 23.5701 33.2016L35.0096 35.8506C36.7754 36.2709 37.8887 36.4364 39.2322 36.481L39.2322 46.0199C38.1958 45.5996 36.3915 45.0138 34.4722 44.4662L11.4779 37.7418C9.67371 37.1942 8.21498 36.8185 7.29367 36.6911L7.29368 28.2857L7.29368 28.2793Z" fill="url(#paint0_linear_2743_178)"/>
<path d="M7.29368 49.4649C9.0979 49.7196 10.7102 49.8024 13.0902 49.8024L33.4357 49.8024C36.0844 49.8024 37.7351 49.7196 39.2322 49.4649L39.2322 58.1632C37.5432 57.9085 36.1612 57.8258 33.4357 57.8258L29.3666 57.8258C29.0595 57.8258 28.4453 57.7812 28.0998 57.7812C30.3263 60.3028 31.286 62.9518 31.286 66.5241C31.286 69.3833 30.5566 71.6502 29.1363 73.2039C27.6008 74.885 25.7198 75.5982 22.6871 75.5982L13.0518 75.5982C10.8253 75.5982 8.90596 75.7256 7.29368 75.9357L7.29368 67.1928C9.13628 67.4475 10.7486 67.5302 13.0902 67.5302L20.9597 67.5302C22.4952 67.5302 23.1862 67.3647 23.8388 66.8553C24.5298 66.2694 24.8752 65.3397 24.8752 64.1681C24.8752 61.7738 23.4165 59.5005 20.8829 57.8194L13.0902 57.8194C10.9021 57.8194 9.28984 57.9022 7.29368 58.1569L7.29368 49.4585L7.29368 49.4649Z" fill="url(#paint1_linear_2743_178)"/>
<path d="M25.5662 81.7814C29.405 79.973 29.7505 79.8074 30.7101 79.2598L30.7101 88.3784C29.4817 88.5886 27.8311 89.1362 25.7581 90.0149L16.8906 93.8802L25.6046 97.6181C28.2533 98.7961 29.3666 99.1718 30.7101 99.4265L30.7101 108.545C29.3794 107.845 27.6647 107.004 25.5662 106.024L5.2591 96.4018C1.65066 94.7207 -1.19877e-05 91.696 -1.17784e-05 86.9075C-1.16977e-05 85.0608 0.191929 83.4625 0.65258 81.151L6.75622 82.0743C6.10363 83.4625 5.9117 84.2585 5.9117 85.3537C5.9117 86.952 6.56428 88.1301 7.71592 88.7605L9.36659 89.6456L25.5662 81.7878L25.5662 81.7814Z" fill="url(#paint2_linear_2743_178)"/>
<path d="M7.29368 153.145C8.52208 152.979 9.86565 152.68 11.4012 152.26L22.6871 149.063C24.1843 148.643 25.9501 148.306 28.4837 147.885C26.9098 147.631 24.4914 147.127 22.6871 146.624L11.3628 143.517C9.44339 142.969 8.33014 142.721 7.29368 142.594L7.29368 134.233C8.40692 134.023 9.21306 133.812 11.4395 133.182L34.4722 126.458C36.4299 125.872 38.1958 125.28 39.2322 124.859L39.2322 134.443C37.8503 134.487 36.6219 134.698 35.0096 135.029L23.3397 137.716C22.7639 137.843 20.9597 138.136 17.9271 138.639C21.1516 139.27 22.5336 139.563 23.3397 139.817L35.2399 143.179C36.9674 143.683 38.1574 143.937 39.2322 144.103L39.2322 151.585C38.2342 151.75 37.1593 152.005 35.3551 152.553L23.5317 155.96C22.3033 156.297 21.0365 156.59 17.9271 157.138C18.4133 157.193 19.1939 157.305 20.2687 157.475C21.1132 157.602 22.9559 157.895 23.5701 158.061L35.0096 160.71C36.7754 161.13 37.8887 161.296 39.2322 161.34L39.2322 170.879C38.1958 170.459 36.3915 169.873 34.4722 169.326L11.4779 162.601C9.67371 162.054 8.21498 161.678 7.29367 161.55L7.29368 153.145Z" fill="url(#paint3_linear_2743_178)"/>
<path d="M16.8522 180.966C13.7428 181.386 12.0921 183.36 12.0921 186.684C12.0921 188.365 12.5912 189.836 13.5125 190.931C14.0499 191.562 14.4722 191.855 15.4702 192.192L13.5893 199.502C11.5931 198.535 10.7102 197.904 9.63532 196.726C7.48561 194.332 6.37236 190.97 6.37236 186.811C6.37236 182.653 7.44722 179.457 9.63532 177.062C11.9386 174.585 15.2015 173.235 19.0019 173.235C26.6027 173.235 31.6315 178.572 31.6315 186.601C31.6315 193.154 28.3685 197.739 22.6487 199.21C21.4203 199.547 19.8081 199.713 17.62 199.84C17.4664 199.84 17.2361 199.84 16.8522 199.884L16.8522 180.972L16.8522 180.966ZM22.1497 191.893C24.6065 191.307 25.9117 189.499 25.9117 186.595C25.9117 183.691 24.6833 181.806 22.1497 181.087L22.1497 191.887L22.1497 191.893Z" fill="url(#paint4_linear_2743_178)"/>
<path d="M17.6968 227.069C16.3148 227.234 15.6238 227.533 14.8561 228.164C13.7044 229.17 13.0518 230.94 13.0518 233.08C13.0518 236.315 14.357 238.25 16.5067 238.25C17.6967 238.25 18.7332 237.575 19.1939 236.487C19.5777 235.601 19.8465 234.551 20.7678 230.182C21.5355 226.317 21.9962 224.974 22.9943 223.42C24.6833 220.771 27.2553 219.345 30.3647 219.345C36.2764 219.345 40 224.553 40 232.831C40 238.168 38.5029 242.243 35.6238 244.516C34.357 245.567 33.2054 246.07 31.0173 246.618L30.1344 237.709C32.6296 237.206 33.666 235.691 33.666 232.5C33.666 229.934 32.3992 228.043 30.6334 228.043C29.5585 228.043 28.7524 228.673 28.1766 230.017C27.9463 230.577 27.524 232.511 26.9098 235.818C26.2956 239.015 25.643 241.027 24.7217 242.625C22.9943 245.65 20.4223 247.165 16.8906 247.165C14.0115 247.165 11.5547 246.159 9.82727 244.223C7.67756 241.785 6.56432 238.085 6.56432 233.169C6.56432 229.597 7.2553 226.069 8.44532 223.796C9.52017 221.694 11.1708 220.14 13.3589 219.255C14.2802 218.835 15.1632 218.625 16.929 218.332L17.6968 227.075L17.6968 227.069Z" fill="url(#paint5_linear_2743_178)"/>
<path d="M31.5163 255.31C33.4357 255.31 34.9712 255.227 36.7755 254.972L36.7755 263.543C35.2016 263.333 33.3589 263.206 31.5163 263.206L30.7102 263.206L30.7102 264.721C30.7102 266.568 30.7486 267.536 30.9021 268.841L24.5298 268.841C24.6833 267.58 24.7601 266.485 24.7601 264.976L24.7601 263.212L14.9329 263.212C13.858 263.212 13.3206 263.422 12.9751 263.97C12.7064 264.435 12.5528 265.103 12.5528 265.906C12.5528 267.001 12.7448 267.797 13.2438 268.847L7.40887 269.478C6.87144 267.587 6.64111 265.95 6.64111 263.677C6.64111 260.818 7.06338 258.844 7.98468 257.5C9.09792 255.902 10.4031 255.316 13.0135 255.316L24.7601 255.316L24.7601 253.718C24.7601 252.374 24.6833 251.279 24.5298 250.062L30.9405 250.062C30.787 251.279 30.7102 252.329 30.7102 253.8L30.7102 255.316L31.5163 255.316L31.5163 255.31Z" fill="url(#paint6_linear_2743_178)"/>
<path d="M23.3397 289.855C25.1823 289.855 26.0268 288.639 26.0268 285.862C26.0268 283.086 25.2207 281.742 23.3397 281.112L24.5297 273.089C26.7946 273.929 28.023 274.852 29.1746 276.616C30.6334 278.883 31.3627 281.997 31.3627 286.072C31.3627 289.18 30.8253 292.211 30.0192 293.847C28.6756 296.535 26.5643 297.713 23.1094 297.713L12.7447 297.713C10.4031 297.713 9.02109 297.795 7.29365 298.006L7.29365 289.855L9.05948 289.855C7.40881 287.499 6.75622 285.149 6.75622 281.704C6.75622 278.507 7.4472 276.113 8.86754 274.432C10.1343 272.917 11.9769 272.121 14.0883 272.121C16.5067 272.121 18.4261 273.171 19.6929 275.19C21.0748 277.336 21.881 280.15 22.1881 283.933C22.3416 285.569 22.38 286.83 22.4568 289.861L23.3397 289.861L23.3397 289.855ZM17.5432 289.855C17.4664 286.117 17.2744 284.309 16.7754 282.583C16.3148 281.067 15.3551 280.144 14.2418 280.144C12.8599 280.144 12.0537 281.405 12.0537 283.589C12.0537 285.315 12.6295 287.206 13.5125 288.339C14.2802 289.307 15.3167 289.855 16.4683 289.855L17.5432 289.855Z" fill="url(#paint7_linear_2743_178)"/>
<path d="M7.2937 303.348C9.09792 303.603 10.7102 303.686 13.0902 303.686L24.9137 303.686C27.5624 303.686 29.1747 303.603 30.7102 303.348L30.7102 311.709L29.0979 311.709C28.8676 311.709 28.2918 311.664 28.0231 311.664C30.3263 314.313 31.286 316.873 31.286 320.318C31.286 323.216 30.5566 325.527 29.1363 327.087C27.6008 328.768 25.7198 329.482 22.6872 329.482L13.0519 329.482C10.8254 329.482 8.90598 329.609 7.2937 329.819L7.2937 321.076C9.13631 321.331 10.7486 321.414 13.0902 321.414L20.9597 321.414C22.4952 321.414 23.1478 321.248 23.8004 320.739C24.4914 320.191 24.8753 319.223 24.8753 317.962C24.8753 315.606 23.5317 313.505 20.8446 311.703L13.0902 311.703C10.9021 311.703 9.28986 311.785 7.2937 312.04L7.2937 303.342L7.2937 303.348Z" fill="url(#paint8_linear_2743_178)"/>
<path d="M8.52208 354.704C8.75241 354.704 9.02112 354.704 9.36661 354.749C7.29368 351.934 6.6027 349.788 6.6027 346.26C6.6027 338.613 11.286 333.99 19.0403 333.99C23.0326 333.99 26.2188 335.251 28.4069 337.607C30.3647 339.753 31.4011 342.695 31.4011 346.139C31.4011 349.584 30.595 351.979 28.5605 354.755C29.1363 354.71 29.4818 354.71 30.0192 354.71L33.2054 354.71C35.8925 354.71 37.5432 354.628 39.2322 354.373L39.2322 362.989C37.62 362.734 35.7773 362.651 33.2054 362.651L13.3205 362.651C10.7486 362.651 9.17468 362.734 7.29368 362.989L7.29368 354.71L8.52208 354.71L8.52208 354.704ZM19.0019 342.14C16.8138 342.14 15.048 342.816 13.9347 344.076C13.0134 345.082 12.476 346.598 12.476 348.152C12.476 351.89 15.3167 354.621 19.1171 354.621C22.9175 354.621 25.5278 351.934 25.5278 348.107C25.5278 344.28 23.0326 342.14 19.0019 342.14Z" fill="url(#paint9_linear_2743_178)"/>
<path d="M23.4165 416.395C13.2822 416.395 6.56431 409.633 6.56431 399.419C6.56431 389.205 13.1286 382.48 23.3013 382.48C33.4741 382.48 39.9232 389.122 39.9232 399.463C39.9232 409.805 33.4741 416.402 23.4165 416.402L23.4165 416.395ZM23.3397 407.659C29.5585 407.659 33.3205 404.551 33.3205 399.463C33.3205 394.375 29.5202 391.185 23.3397 391.185C17.1593 391.185 13.2054 394.337 13.2054 399.463C13.2054 404.589 17.0442 407.659 23.3397 407.659Z" fill="url(#paint10_linear_2743_178)"/>
<path d="M30.7101 447.54C28.9059 447.285 27.2936 447.202 24.952 447.202L13.0902 447.202C10.4414 447.202 8.86754 447.285 7.33204 447.54L7.33204 439.179L8.98271 439.179C9.17465 439.179 9.75046 439.179 10.0192 439.224C7.63914 436.447 6.71783 434.053 6.71783 430.481C6.71783 427.666 7.4472 425.393 8.86754 423.801C10.4031 422.12 12.284 421.407 15.3167 421.407L24.952 421.407C27.1785 421.407 29.0979 421.279 30.7101 421.069L30.7101 429.812C28.8675 429.557 27.2553 429.475 24.952 429.475L17.0825 429.475C15.5086 429.475 14.8176 429.64 14.2034 430.15C13.5125 430.735 13.1286 431.665 13.1286 432.881C13.1286 435.193 14.6257 437.549 17.0825 439.185L24.952 439.185C27.1017 439.185 28.714 439.103 30.7101 438.848L30.7101 447.546L30.7101 447.54Z" fill="url(#paint11_linear_2743_178)"/>
<path d="M31.5163 456.155C33.4357 456.155 34.9712 456.073 36.7754 455.818L36.7754 464.389C35.2015 464.179 33.3589 464.052 31.5163 464.052L30.7101 464.052L30.7101 465.567C30.7101 467.414 30.7485 468.382 30.9021 469.687L24.5297 469.687C24.6833 468.426 24.76 467.331 24.76 465.822L24.76 464.058L14.9328 464.058C13.8579 464.058 13.3205 464.268 12.975 464.816C12.7063 465.281 12.5528 465.949 12.5528 466.751C12.5528 467.847 12.7447 468.643 13.2437 469.693L7.40881 470.324C6.87138 468.433 6.64105 466.796 6.64105 464.523C6.64105 461.664 7.06332 459.69 7.98462 458.346C9.09786 456.748 10.403 456.162 13.0134 456.162L24.76 456.162L24.76 454.564C24.76 453.22 24.6833 452.125 24.5297 450.908L30.9405 450.908C30.7869 452.125 30.7101 453.175 30.7101 454.646L30.7101 456.162L31.5163 456.162L31.5163 456.155Z" fill="url(#paint12_linear_2743_178)"/>
<path d="M16.9674 498.227C17.5816 498.31 17.6199 498.31 18.7332 498.31C21.3819 498.31 22.9175 498.813 24.4146 500.157C25.4894 501.163 25.7198 501.501 27.3704 504.487C28.4837 506.544 29.2898 507.219 30.5566 507.219C32.3608 507.219 33.4357 505.748 33.4357 503.226C33.4357 501.335 32.8215 499.947 31.6315 499.151C31.0173 498.731 30.4798 498.565 29.2898 498.393L30.0192 489.739C32.7831 490.16 34.2802 490.834 35.8925 492.426C38.4261 494.865 39.7313 498.603 39.7313 503.436C39.7313 511.167 36.3915 516 31.094 516C28.7524 516 26.9482 515.159 25.451 513.396C24.6065 512.389 24.3378 511.969 22.2649 508.308C21.2284 506.544 20.2303 505.913 18.4645 505.913C18.0038 505.913 17.5816 505.958 16.9674 506.041L16.9674 498.227ZM14.357 506.378L7.10172 506.378L7.10172 497.935L14.357 497.935L14.357 506.378Z" fill="url(#paint13_linear_2743_178)"/>
<defs>
<linearGradient id="paint0_linear_2743_178" x1="10.7742" y1="5.90929" x2="44.9878" y2="40.2851" gradientUnits="userSpaceOnUse">
<stop stop-color="#6D4799"/>
<stop offset="1" stop-color="#E6AE20"/>
</linearGradient>
<linearGradient id="paint1_linear_2743_178" x1="8.63085" y1="48.1404" x2="31.3763" y2="70.9936" gradientUnits="userSpaceOnUse">
<stop stop-color="#6D4799"/>
<stop offset="1" stop-color="#E6AE20"/>
</linearGradient>
<linearGradient id="paint2_linear_2743_178" x1="5.75814" y1="76.0759" x2="34.4128" y2="104.866" gradientUnits="userSpaceOnUse">
<stop stop-color="#6D4799"/>
<stop offset="1" stop-color="#E6AE20"/>
</linearGradient>
<linearGradient id="paint3_linear_2743_178" x1="10.7742" y1="130.775" x2="44.9878" y2="165.151" gradientUnits="userSpaceOnUse">
<stop stop-color="#6D4799"/>
<stop offset="1" stop-color="#E6AE20"/>
</linearGradient>
<linearGradient id="paint4_linear_2743_178" x1="9.36021" y1="177.323" x2="28.1258" y2="196.178" gradientUnits="userSpaceOnUse">
<stop stop-color="#6D4799"/>
<stop offset="1" stop-color="#E6AE20"/>
</linearGradient>
<linearGradient id="paint5_linear_2743_178" x1="10.7934" y1="220.752" x2="35.0735" y2="245.141" gradientUnits="userSpaceOnUse">
<stop stop-color="#6D4799"/>
<stop offset="1" stop-color="#E6AE20"/>
</linearGradient>
<linearGradient id="paint6_linear_2743_178" x1="12.5912" y1="252.769" x2="30.0196" y2="270.273" gradientUnits="userSpaceOnUse">
<stop stop-color="#6D4799"/>
<stop offset="1" stop-color="#E6AE20"/>
</linearGradient>
<linearGradient id="paint7_linear_2743_178" x1="7.1401" y1="276.12" x2="27.6887" y2="296.766" gradientUnits="userSpaceOnUse">
<stop stop-color="#6D4799"/>
<stop offset="1" stop-color="#E6AE20"/>
</linearGradient>
<linearGradient id="paint8_linear_2743_178" x1="6.50036" y1="304.138" x2="29.2458" y2="326.997" gradientUnits="userSpaceOnUse">
<stop stop-color="#6D4799"/>
<stop offset="1" stop-color="#E6AE20"/>
</linearGradient>
<linearGradient id="paint9_linear_2743_178" x1="7.33846" y1="339.823" x2="34.7896" y2="367.404" gradientUnits="userSpaceOnUse">
<stop stop-color="#6D4799"/>
<stop offset="1" stop-color="#E6AE20"/>
</linearGradient>
<linearGradient id="paint10_linear_2743_178" x1="11.0173" y1="387.193" x2="35.482" y2="411.767" gradientUnits="userSpaceOnUse">
<stop stop-color="#6D4799"/>
<stop offset="1" stop-color="#E6AE20"/>
</linearGradient>
<linearGradient id="paint11_linear_2743_178" x1="8.66281" y1="423.992" x2="31.4083" y2="446.845" gradientUnits="userSpaceOnUse">
<stop stop-color="#6D4799"/>
<stop offset="1" stop-color="#E6AE20"/>
</linearGradient>
<linearGradient id="paint12_linear_2743_178" x1="12.5911" y1="453.615" x2="30.0196" y2="471.119" gradientUnits="userSpaceOnUse">
<stop stop-color="#6D4799"/>
<stop offset="1" stop-color="#E6AE20"/>
</linearGradient>
<linearGradient id="paint13_linear_2743_178" x1="13.5636" y1="491.503" x2="36.0926" y2="514.139" gradientUnits="userSpaceOnUse">
<stop stop-color="#6D4799"/>
<stop offset="1" stop-color="#E6AE20"/>
</linearGradient>
</defs>
</svg>
