<svg width="102" height="102" viewBox="0 0 102 102" fill="none" xmlns="http://www.w3.org/2000/svg">
<g id="user-solid">
<path id="vector" d="M28.6875 31.875C28.8214 38.1841 30.9963 43.4467 35.2123 47.6627C39.4283 51.8787 44.6909 54.0536 51 54.1875C57.3091 54.0536 62.5717 51.8787 66.7877 47.6627C71.0037 43.4467 73.1786 38.1841 73.3125 31.875C73.1786 25.5659 71.0037 20.3033 66.7877 16.0873C62.5717 11.8713 57.3091 9.69637 51 9.5625C44.6909 9.69637 39.4283 11.8713 35.2123 16.0873C30.9963 20.3033 28.8214 25.5659 28.6875 31.875ZM82.875 92.4375H15.9375C15.0068 92.4375 14.2428 92.1389 13.6457 91.5418C13.0486 90.9447 12.75 90.1807 12.75 89.25V79.6875C12.8839 75.1719 14.4447 71.4202 17.4324 68.4324C20.4202 65.4447 24.1719 63.8839 28.6875 63.75H73.3125C77.8281 63.8839 81.5798 65.4447 84.5676 68.4324C87.5553 71.4202 89.1161 75.1719 89.25 79.6875V89.25C89.25 90.1807 88.9514 90.9447 88.3543 91.5418C87.7572 92.1389 86.9932 92.4375 86.0625 92.4375H82.875Z" fill="url(#paint0_linear_1_300)"/>
</g>
<defs>
<linearGradient id="paint0_linear_1_300" x1="51" y1="9.5625" x2="51" y2="92.4375" gradientUnits="userSpaceOnUse">
<stop stop-color="#6D4799"/>
<stop offset="1" stop-color="#E6AE20"/>
</linearGradient>
</defs>
</svg>
