<svg width="92" height="92" viewBox="0 0 92 92" fill="none" xmlns="http://www.w3.org/2000/svg">
<g id="set-up">
<path id="vector" d="M20.125 14.375C18.5073 14.4344 17.1599 15.0037 16.0827 16.0827C15.0056 17.1618 14.4363 18.5092 14.375 20.125V71.875C14.4344 73.4927 15.0037 74.8401 16.0827 75.9173C17.1618 76.9944 18.5092 77.5637 20.125 77.625H71.875C73.4927 77.5656 74.8401 76.9963 75.9173 75.9173C76.9944 74.8382 77.5637 73.4908 77.625 71.875V20.125C77.5656 18.5073 76.9963 17.1599 75.9173 16.0827C74.8382 15.0056 73.4908 14.4363 71.875 14.375H20.125ZM20.125 8.625H71.875C75.1103 8.68442 77.8205 9.80758 80.0055 11.9945C82.1905 14.1814 83.3137 16.8916 83.375 20.125V71.875C83.3156 75.1103 82.1924 77.8205 80.0055 80.0055C77.8186 82.1905 75.1084 83.3137 71.875 83.375H20.125C16.8897 83.3156 14.1795 82.1924 11.9945 80.0055C9.8095 77.8186 8.68633 75.1084 8.625 71.875V20.125C8.68442 16.8897 9.80758 14.1795 11.9945 11.9945C14.1814 9.8095 16.8916 8.68633 20.125 8.625ZM34.5 37.375C36.1177 37.3156 37.4651 36.7463 38.5422 35.6672C39.6194 34.5882 40.159 33.2407 40.1609 31.625C40.1628 30.0093 39.6233 28.6618 38.5422 27.5828C37.4613 26.5037 36.1138 25.9641 34.5 25.9641C32.8862 25.9641 31.5387 26.5037 30.4578 27.5828C29.3767 28.6618 28.8372 30.0093 28.8391 31.625C28.841 33.2407 29.3806 34.5882 30.4578 35.6672C31.5349 36.7463 32.8823 37.3156 34.5 37.375ZM34.5 43.125C31.2647 43.0656 28.5545 41.9424 26.3695 39.7555C24.1845 37.5686 23.0613 34.8584 23 31.625C23.0594 28.3897 24.1826 25.6795 26.3695 23.4945C28.5564 21.3095 31.2666 20.1863 34.5 20.125C37.7353 20.1844 40.4455 21.3076 42.6305 23.4945C44.8155 25.6814 45.9387 28.3916 46 31.625C45.9406 34.8603 44.8174 37.5705 42.6305 39.7555C40.4436 41.9405 37.7334 43.0637 34.5 43.125ZM43.125 28.75H66.125C68.0417 28.75 69 29.7083 69 31.625C69 33.5417 68.0417 34.5 66.125 34.5H43.125C41.2083 34.5 40.25 33.5417 40.25 31.625C40.25 29.7083 41.2083 28.75 43.125 28.75ZM57.5 66.125C59.1177 66.0656 60.4651 65.4963 61.5423 64.4173C62.6194 63.3382 63.159 61.9907 63.1609 60.375C63.1628 58.7593 62.6232 57.4118 61.5423 56.3327C60.4613 55.2537 59.1138 54.7141 57.5 54.7141C55.8862 54.7141 54.5387 55.2537 53.4577 56.3327C52.3768 57.4118 51.8372 58.7593 51.8391 60.375C51.841 61.9907 52.3806 63.3382 53.4577 64.4173C54.5349 65.4963 55.8823 66.0656 57.5 66.125ZM57.5 71.875C54.2647 71.8156 51.5545 70.6924 49.3695 68.5055C47.1845 66.3186 46.0613 63.6084 46 60.375C46.0594 57.1397 47.1826 54.4295 49.3695 52.2445C51.5564 50.0595 54.2666 48.9363 57.5 48.875C60.7353 48.9344 63.4455 50.0576 65.6305 52.2445C67.8155 54.4314 68.9387 57.1416 69 60.375C68.9406 63.6103 67.8174 66.3205 65.6305 68.5055C63.4436 70.6905 60.7334 71.8137 57.5 71.875ZM25.875 57.5H48.875C50.7917 57.5 51.75 58.4583 51.75 60.375C51.75 62.2917 50.7917 63.25 48.875 63.25H25.875C23.9583 63.25 23 62.2917 23 60.375C23 58.4583 23.9583 57.5 25.875 57.5Z" fill="url(#paint0_linear_1_304)"/>
</g>
<defs>
<linearGradient id="paint0_linear_1_304" x1="46" y1="8.625" x2="46" y2="83.375" gradientUnits="userSpaceOnUse">
<stop stop-color="#6D4799"/>
<stop offset="1" stop-color="#E6AE20"/>
</linearGradient>
</defs>
</svg>
