<svg width="40" height="167" viewBox="0 0 40 167" fill="none" xmlns="http://www.w3.org/2000/svg">
<g id="_&#227;&#131;&#172;&#227;&#130;&#164;&#227;&#131;&#164;&#227;&#131;&#188;_1" clip-path="url(#clip0_1_316)">
<path id="Vector" d="M1.07213 29.2642C3.31385 28.8918 4.54192 28.5978 6.12087 28.1273L10.0975 26.8533L10.0975 13.4462L6.12087 12.1722C4.24952 11.5646 2.78754 11.2313 1.07214 10.9961L1.07214 -1.70159e-06C2.47564 0.705632 3.60625 1.13685 6.78363 2.25411L34.9513 12.427C37.2515 13.2698 38.655 13.7011 40 13.9363L40 26.2065C38.6355 26.5397 37.4269 26.8729 34.9513 27.8137L6.78363 38.0258C4.308 38.9275 2.37818 39.6723 1.07213 40.2799L1.07213 29.2642ZM32.0078 20.091L17.9727 15.72L17.9727 24.56L32.0078 20.091Z" fill="url(#paint0_linear_1_316)"/>
<path id="Vector_2" d="M1.07214 43.0831C3.31385 43.3575 5.28266 43.4555 8.42106 43.4555L32.6511 43.4555C36.0624 43.4555 37.7583 43.3575 40 43.0831L40 52.6287C37.7583 52.3935 36.0624 52.2955 32.6511 52.2955L28.7135 52.2955C28.0117 52.2955 27.5828 52.2955 26.9396 52.2563C29.3762 55.0397 30.4483 58.0386 30.4483 61.9392C30.4483 70.5048 25.0292 75.4834 15.7505 75.4834C10.7407 75.4834 6.72515 74.033 3.85966 71.2888C1.42301 68.8387 0.214435 65.6438 0.214435 61.508C0.214435 57.6074 1.01366 55.2945 3.52828 52.2367C3.39182 52.2367 2.78754 52.2759 2.55362 52.2759L1.05264 52.2759L1.05264 43.0635L1.07214 43.0831ZM23.3528 59.7439C23.3528 55.4709 20.078 52.4131 15.5361 52.4131C10.9942 52.4131 7.38792 55.5101 7.38792 59.5675C7.38792 63.6249 10.7018 66.3886 15.6725 66.3886C20.6433 66.3886 23.3528 63.8993 23.3528 59.7635L23.3528 59.7439Z" fill="url(#paint1_linear_1_316)"/>
<path id="Vector_3" d="M15.3996 78.0508C24.7564 78.0508 30.7018 84.0683 30.7018 93.5747C30.7018 103.081 24.7564 109.099 15.4971 109.099C6.23785 109.099 0.0195263 102.885 0.0195268 93.5355C0.0195272 84.1859 6.00393 78.0508 15.4191 78.0508L15.3996 78.0508ZM15.4386 87.028C10.2339 87.028 7.11504 89.4781 7.11504 93.5747C7.11504 97.6713 10.156 100.023 15.3412 100.023C20.5263 100.023 23.6647 97.6321 23.6647 93.6335C23.6647 89.6349 20.5848 87.0476 15.4386 87.0476L15.4386 87.028Z" fill="url(#paint2_linear_1_316)"/>
<path id="Vector_4" d="M29.6101 142.499C27.4074 142.225 25.4386 142.127 22.5926 142.127L8.12863 142.127C4.89276 142.127 2.98243 142.225 1.11108 142.499L1.11109 133.13L3.11888 133.13C3.3528 133.13 4.05456 133.13 4.38594 133.169C1.48146 130.072 0.370347 127.387 0.370348 123.388C0.370348 120.232 1.26703 117.704 2.98243 115.901C4.85378 114.019 7.15397 113.215 10.8382 113.215L22.5731 113.215C25.2826 113.215 27.6218 113.078 29.5906 112.843L29.5906 122.624C27.3489 122.349 25.3801 122.251 22.5731 122.251L12.9824 122.251C11.0721 122.251 10.2144 122.447 9.47366 122.996C8.63545 123.662 8.16762 124.682 8.16762 126.054C8.16762 128.641 9.99997 131.268 12.9824 133.11L22.5731 133.11C25.1852 133.11 27.154 133.012 29.5906 132.738L29.5906 142.479L29.6101 142.499Z" fill="url(#paint3_linear_1_316)"/>
<path id="Vector_5" d="M30.6043 151.143C32.9434 151.143 34.8148 151.045 37.0175 150.771L37.0175 160.375C35.1072 160.14 32.846 160.003 30.6043 160.003L29.6296 160.003L29.6296 161.688C29.6296 163.766 29.6686 164.844 29.8635 166.295L22.1052 166.295C22.3002 164.883 22.3781 163.668 22.3781 161.963L22.3781 159.983L10.4093 159.983C9.10329 159.983 8.44052 160.218 8.03117 160.826C7.69978 161.336 7.52434 162.1 7.52434 162.982C7.52434 164.197 7.75826 165.099 8.36255 166.275L1.24754 166.981C0.584777 164.864 0.31187 163.021 0.31187 160.493C0.31187 157.298 0.818691 155.083 1.94929 153.574C3.31382 151.79 4.89276 151.123 8.07015 151.123L22.3781 151.123L22.3781 149.34C22.3781 147.83 22.2807 146.615 22.1052 145.243L29.922 145.243C29.7271 146.615 29.6491 147.791 29.6491 149.438L29.6491 151.123L30.6238 151.123L30.6043 151.143Z" fill="url(#paint4_linear_1_316)"/>
</g>
<defs>
<linearGradient id="paint0_linear_1_316" x1="-2.67055" y1="3.76338" x2="30.0037" y2="36.258" gradientUnits="userSpaceOnUse">
<stop stop-color="#6D4799"/>
<stop offset="0.19" stop-color="#7E5587"/>
<stop offset="0.57" stop-color="#AB7C5A"/>
<stop offset="1" stop-color="#E6AE20"/>
</linearGradient>
<linearGradient id="paint1_linear_1_316" x1="4.48344" y1="39.6529" x2="31.7479" y2="66.7675" gradientUnits="userSpaceOnUse">
<stop stop-color="#6D4799"/>
<stop offset="0.19" stop-color="#7E5587"/>
<stop offset="0.57" stop-color="#AB7C5A"/>
<stop offset="1" stop-color="#E6AE20"/>
</linearGradient>
<linearGradient id="paint2_linear_1_316" x1="4.17157" y1="82.2454" x2="26.7515" y2="104.701" gradientUnits="userSpaceOnUse">
<stop stop-color="#6D4799"/>
<stop offset="0.19" stop-color="#7E5587"/>
<stop offset="0.57" stop-color="#AB7C5A"/>
<stop offset="1" stop-color="#E6AE20"/>
</linearGradient>
<linearGradient id="paint3_linear_1_316" x1="3.33331" y1="115.567" x2="30.0098" y2="142.097" gradientUnits="userSpaceOnUse">
<stop stop-color="#6D4799"/>
<stop offset="0.19" stop-color="#7E5587"/>
<stop offset="0.57" stop-color="#AB7C5A"/>
<stop offset="1" stop-color="#E6AE20"/>
</linearGradient>
<linearGradient id="paint4_linear_1_316" x1="7.83624" y1="147.556" x2="28.9069" y2="168.511" gradientUnits="userSpaceOnUse">
<stop stop-color="#6D4799"/>
<stop offset="0.19" stop-color="#7E5587"/>
<stop offset="0.57" stop-color="#AB7C5A"/>
<stop offset="1" stop-color="#E6AE20"/>
</linearGradient>
<clipPath id="clip0_1_316">
<rect width="167" height="40" fill="white" transform="translate(40) rotate(90)"/>
</clipPath>
</defs>
</svg>
