<svg width="43" height="253" viewBox="0 0 43 253" fill="none" xmlns="http://www.w3.org/2000/svg">
<g id="_&#227;&#131;&#172;&#227;&#130;&#164;&#227;&#131;&#164;&#227;&#131;&#188;_1" clip-path="url(#clip0_1_278)">
<path id="Vector" d="M10.109 10.2345C5.4557 10.2345 3.67924 10.2876 1.50506 10.6322L1.50506 -1.8138e-06C3.67924 0.344685 5.65455 0.437485 9.96313 0.437485L35.576 0.437486C38.8505 0.437486 40.4811 0.344686 42.8011 0.0530287C42.7083 2.08138 42.6553 3.46012 42.6553 7.27819L42.6553 21.5694C42.6553 25.9178 42.7083 27.5484 43 29.8817L33.6007 29.8817C33.8526 27.7075 33.9454 25.7719 33.9454 21.6224L33.9454 10.2345L25.832 10.2345L25.832 19.5278C25.832 23.3856 25.9248 25.2682 26.1767 27.4423L17.0292 27.4423C17.2811 25.2682 17.3739 23.2928 17.3739 19.5278L17.3739 10.2345L10.109 10.2345Z" fill="url(#paint0_linear_1_278)"/>
<path id="Vector_2" d="M13.821 41.4021C9.81733 41.8926 7.68292 44.2259 7.68292 48.1235C7.68292 50.0988 8.33252 51.8355 9.51241 53.1214C10.2018 53.8638 10.7453 54.2085 12.0313 54.6062L9.60521 63.2102C7.03332 62.07 5.8932 61.3276 4.51446 59.9489C1.74371 57.1251 0.311935 53.1745 0.311935 48.2826C0.311935 43.3907 1.69068 39.6256 4.51446 36.8019C7.48406 33.8853 11.6866 32.2944 16.5785 32.2944C26.3755 32.2944 32.845 38.5783 32.845 48.0174C32.845 55.7331 28.6425 61.1288 21.2715 62.8522C19.6939 63.2499 17.6125 63.4488 14.7888 63.5946C14.5899 63.5946 14.2982 63.5946 13.7945 63.6476L13.7945 41.3888L13.821 41.4021ZM20.6484 54.2616C23.8169 53.5722 25.5006 51.4378 25.5006 48.0307C25.5006 44.6236 23.923 42.3964 20.6484 41.5479L20.6484 54.2616Z" fill="url(#paint1_linear_1_278)"/>
<path id="Vector_3" d="M22.173 87.4578C24.546 87.4578 25.6331 86.026 25.6331 82.7647C25.6331 79.5035 24.599 77.9126 22.173 77.1702L23.7108 67.7178C26.6274 68.7121 28.205 69.7992 29.6898 71.8673C31.5723 74.532 32.5135 78.2042 32.5135 82.9901C32.5135 86.6491 31.8242 90.2152 30.7769 92.1375C29.0402 95.306 26.3225 96.6847 21.868 96.6847L8.51807 96.6847C5.49544 96.6847 3.71898 96.7908 1.49177 97.0294L1.49177 87.4312L3.772 87.4312C1.65086 84.6605 0.8024 81.8897 0.8024 77.833C0.8024 74.068 1.69063 71.2575 3.52012 69.2822C5.15075 67.5057 7.52379 66.5645 10.2415 66.5645C13.3569 66.5645 15.836 67.7974 17.4667 70.1704C19.2431 72.6893 20.2904 76.0036 20.6882 80.458C20.887 82.3935 20.94 83.8651 21.0328 87.4312L22.173 87.4312L22.173 87.4578ZM14.7092 87.4578C14.6164 83.0564 14.3645 80.9352 13.7149 78.9069C13.1183 77.1304 11.8854 76.0433 10.4536 76.0433C8.67716 76.0433 7.62984 77.5281 7.62984 80.1C7.62984 82.1284 8.37224 84.3556 9.51236 85.6945C10.5066 86.8347 11.8324 87.471 13.3172 87.471L14.6959 87.471L14.7092 87.4578Z" fill="url(#paint2_linear_1_278)"/>
<path id="Vector_4" d="M32.7124 106.203C35.1915 106.203 37.1668 106.097 39.4868 105.806L39.4868 115.894C37.4585 115.642 35.0854 115.497 32.7124 115.497L31.6783 115.497L31.6783 117.273C31.6783 119.447 31.7314 120.587 31.9302 122.125L23.724 122.125C23.9229 120.64 24.0157 119.354 24.0157 117.578L24.0157 115.497L11.3551 115.497C9.97635 115.497 9.27372 115.748 8.83624 116.385C8.49155 116.928 8.2927 117.724 8.2927 118.665C8.2927 119.951 8.54458 120.892 9.18092 122.125L1.66411 122.868C0.974738 120.64 0.669822 118.718 0.669822 116.04C0.669822 112.673 1.21337 110.353 2.40651 108.775C3.83829 106.893 5.52195 106.203 8.88927 106.203L24.029 106.203L24.029 104.321C24.029 102.743 23.9362 101.457 23.7373 100.012L31.9965 100.012C31.7977 101.444 31.7049 102.677 31.7049 104.414L31.7049 106.19L32.7389 106.19L32.7124 106.203Z" fill="url(#paint3_linear_1_278)"/>
<path id="Vector_5" d="M31.6783 157.111C29.3583 156.819 27.277 156.713 24.2543 156.713L8.96881 156.713C5.56172 156.713 3.53337 156.806 1.5448 157.111L1.5448 147.274L3.66594 147.274C3.91783 147.274 4.66023 147.274 5.00492 147.327C1.94251 144.066 0.749364 141.242 0.749364 137.04C0.749365 133.725 1.69062 131.061 3.52011 129.178C5.49543 127.203 7.9215 126.354 11.8324 126.354L24.2411 126.354C27.1046 126.354 29.5837 126.208 31.6651 125.957L31.6651 136.244C29.2921 135.952 27.2107 135.846 24.2411 135.846L14.0993 135.846C12.071 135.846 11.1828 136.045 10.3873 136.642C9.4991 137.331 9.00859 138.418 9.00859 139.863C9.00859 142.581 10.9309 145.352 14.0993 147.287L24.2411 147.287C27.0118 147.287 29.0932 147.195 31.6651 146.89L31.6651 157.124L31.6783 157.111Z" fill="url(#paint4_linear_1_278)"/>
<path id="Vector_6" d="M22.7695 184.566C23.4589 182.286 23.7108 181.053 23.7108 179.515C23.7108 176.997 22.8226 175.061 21.0461 173.629C19.853 172.688 18.8189 172.343 16.6447 172.144L8.92905 172.144C5.76059 172.144 3.87807 172.25 1.50504 172.542L1.50504 162.308C3.98413 162.599 5.76059 162.705 8.96882 162.705L24.2013 162.705C27.8073 162.705 29.5439 162.613 31.6651 162.308L31.6651 172.144L27.7542 172.144C30.9227 174.571 32.2484 177.54 32.2484 182.034C32.2484 183.612 32.1556 184.606 31.6518 186.926L22.743 184.553L22.7695 184.566Z" fill="url(#paint5_linear_1_278)"/>
<path id="Vector_7" d="M13.8209 197.718C9.81727 198.208 7.68286 200.541 7.68286 204.439C7.68286 206.414 8.33246 208.151 9.51235 209.437C10.2017 210.179 10.7453 210.524 12.0312 210.922L9.60515 219.526C7.03326 218.385 5.89314 217.643 4.5144 216.264C1.74365 213.441 0.311873 209.49 0.311874 204.598C0.311874 199.706 1.69062 195.941 4.5144 193.117C7.484 190.201 11.6865 188.61 16.5784 188.61C26.3755 188.61 32.845 194.894 32.845 204.333C32.845 212.049 28.6424 217.444 21.2715 219.168C19.6939 219.565 17.6125 219.764 14.7887 219.91C14.5898 219.91 14.2982 219.91 13.7944 219.963L13.7944 197.704L13.8209 197.718ZM20.6484 210.577C23.8168 209.888 25.5005 207.753 25.5005 204.346C25.5005 200.939 23.9229 198.712 20.6484 197.863L20.6484 210.577Z" fill="url(#paint6_linear_1_278)"/>
<path id="Vector_8" d="M11.5937 232.597C9.02185 233.088 7.88174 234.771 7.88174 238.086C7.88174 241.055 8.71694 242.739 10.2548 242.739C10.9972 242.739 11.6335 242.341 12.0312 241.652C12.4289 240.962 12.6278 240.313 13.1713 237.595C13.9137 233.83 14.4043 231.908 14.9478 230.277C15.836 227.904 16.9762 226.273 18.461 225.332C19.7999 224.537 21.4836 224.099 23.154 224.099C29.0932 224.099 32.6992 229.097 32.6992 237.356C32.6992 242.049 31.6651 245.563 29.5307 247.896C28.0989 249.527 26.6671 250.322 23.8964 251.104L22.8623 241.559C24.8907 241.307 25.7789 240.074 25.7789 237.409C25.7789 234.745 24.9437 233.26 23.6578 233.26C22.3718 233.26 21.8283 234.294 20.7412 239.199C19.7071 244.051 19.2564 245.576 18.3682 247.313C16.7906 250.521 14.3645 252.059 10.7983 252.059C8.17339 252.059 5.80036 251.17 4.22276 249.54C1.84972 247.167 0.616809 243.11 0.616809 237.82C0.616809 231.59 2.30047 227.188 5.56173 224.815C6.94048 223.821 8.13362 223.33 10.5067 222.84L11.5937 232.637L11.5937 232.597Z" fill="url(#paint7_linear_1_278)"/>
</g>
<defs>
<linearGradient id="paint0_linear_1_278" x1="8.83627" y1="-7.33122" x2="44.5246" y2="28.3571" gradientUnits="userSpaceOnUse">
<stop stop-color="#6D4799"/>
<stop offset="1" stop-color="#E6AE20"/>
</linearGradient>
<linearGradient id="paint1_linear_1_278" x1="4.75309" y1="36.5765" x2="27.9266" y2="59.75" gradientUnits="userSpaceOnUse">
<stop stop-color="#6D4799"/>
<stop offset="1" stop-color="#E6AE20"/>
</linearGradient>
<linearGradient id="paint2_linear_1_278" x1="2.03532" y1="70.7802" x2="27.3698" y2="96.1147" gradientUnits="userSpaceOnUse">
<stop stop-color="#6D4799"/>
<stop offset="1" stop-color="#E6AE20"/>
</linearGradient>
<linearGradient id="paint3_linear_1_278" x1="8.65064" y1="102.425" x2="30.8034" y2="124.578" gradientUnits="userSpaceOnUse">
<stop stop-color="#6D4799"/>
<stop offset="1" stop-color="#E6AE20"/>
</linearGradient>
<linearGradient id="paint4_linear_1_278" x1="3.89131" y1="128.807" x2="31.9302" y2="156.846" gradientUnits="userSpaceOnUse">
<stop stop-color="#6D4799"/>
<stop offset="1" stop-color="#E6AE20"/>
</linearGradient>
<linearGradient id="paint5_linear_1_278" x1="6.48973" y1="157.323" x2="33.8923" y2="184.725" gradientUnits="userSpaceOnUse">
<stop stop-color="#6D4799"/>
<stop offset="1" stop-color="#E6AE20"/>
</linearGradient>
<linearGradient id="paint6_linear_1_278" x1="4.75303" y1="192.892" x2="27.9266" y2="216.065" gradientUnits="userSpaceOnUse">
<stop stop-color="#6D4799"/>
<stop offset="1" stop-color="#E6AE20"/>
</linearGradient>
<linearGradient id="paint7_linear_1_278" x1="4.44813" y1="225.73" x2="28.0857" y2="249.367" gradientUnits="userSpaceOnUse">
<stop stop-color="#6D4799"/>
<stop offset="1" stop-color="#E6AE20"/>
</linearGradient>
<clipPath id="clip0_1_278">
<rect width="252.032" height="42.6881" fill="white" transform="translate(43) rotate(90)"/>
</clipPath>
</defs>
</svg>
