<svg width="80" height="80" viewBox="0 0 80 80" fill="none" xmlns="http://www.w3.org/2000/svg">
<g id="_&#227;&#131;&#172;&#227;&#130;&#164;&#227;&#131;&#164;&#227;&#131;&#188;_1" clip-path="url(#clip0_1_203)">
<path id="Vector" d="M39.9981 79.9963C62.0885 79.9963 79.9963 62.0885 79.9963 39.9981C79.9963 17.9078 62.0885 0 39.9981 0C17.9078 0 0 17.9078 0 39.9981C0 62.0885 17.9078 79.9963 39.9981 79.9963Z" fill="url(#paint0_linear_1_203)"/>
<path id="Vector_2" d="M48.3735 25.0587V30.6797H38.6846L38.1419 35.3314C38.606 35.294 39.0326 35.2528 39.4967 35.2528C44.0698 35.2528 49.3802 37.7714 49.3802 44.5151C49.3802 50.095 45.0765 54.9413 37.7116 54.9413C34.7663 54.9413 32.0531 54.2415 30.6198 53.508L31.8211 48.3548C33.0598 48.9348 35.077 49.5935 37.2475 49.5935C39.9981 49.5935 42.5205 47.9656 42.5205 45.0204C42.5205 41.7271 39.8859 40.0992 35.1967 40.0992C33.9954 40.0992 33.0636 40.1366 32.1355 40.2938L33.842 25.0625H48.3772L48.3735 25.0587Z" fill="white"/>
</g>
<defs>
<linearGradient id="paint0_linear_1_203" x1="11.7173" y1="11.7173" x2="68.2827" y2="68.2827" gradientUnits="userSpaceOnUse">
<stop stop-color="#6D4799"/>
<stop offset="1" stop-color="#E6AE20"/>
</linearGradient>
<clipPath id="clip0_1_203">
<rect width="80" height="80" fill="white"/>
</clipPath>
</defs>
</svg>
