<svg width="80" height="80" viewBox="0 0 80 80" fill="none" xmlns="http://www.w3.org/2000/svg">
<g id="_&#227;&#131;&#172;&#227;&#130;&#164;&#227;&#131;&#164;&#227;&#131;&#188;_1" clip-path="url(#clip0_1_194)">
<path id="Vector" d="M39.9981 79.9963C62.0885 79.9963 79.9963 62.0885 79.9963 39.9981C79.9963 17.9078 62.0885 0 39.9981 0C17.9078 0 0 17.9078 0 39.9981C0 62.0885 17.9078 79.9963 39.9981 79.9963Z" fill="url(#paint0_linear_1_194)"/>
<path id="Vector_2" d="M43.5945 38.8868C46.8915 39.6801 49.5523 42.3821 49.5523 46.3565C49.5523 51.4423 45.3422 55.5327 38.1906 55.5327C34.8936 55.5327 31.9933 54.7393 30.4439 53.785L31.9147 48.5008C33.0673 49.2156 35.4512 50.0502 37.5956 50.0502C40.6942 50.0502 42.4419 48.2613 42.4419 45.9972C42.4419 42.9771 39.7399 41.6262 36.8396 41.6262H34.8524V36.7424H36.6413C38.8642 36.7424 41.6073 35.6684 41.6073 33.1273C41.6073 31.301 40.2975 29.9875 37.7939 29.9875C35.8479 29.9875 33.9019 30.7809 32.7492 31.4582L31.3982 26.4547C32.9887 25.463 36.2034 24.4675 39.5004 24.4675C45.4582 24.4675 48.6355 27.8843 48.6355 31.9372C48.6355 35.0359 46.768 37.5395 43.5908 38.8082V38.8868H43.5945Z" fill="white"/>
</g>
<defs>
<linearGradient id="paint0_linear_1_194" x1="11.7173" y1="11.7173" x2="68.2827" y2="68.2827" gradientUnits="userSpaceOnUse">
<stop stop-color="#6D4799"/>
<stop offset="1" stop-color="#E6AE20"/>
</linearGradient>
<clipPath id="clip0_1_194">
<rect width="80" height="80" fill="white"/>
</clipPath>
</defs>
</svg>
