<svg width="30" height="30" viewBox="0 0 30 30" fill="none" xmlns="http://www.w3.org/2000/svg">
<path d="M15 30C23.2843 30 30 23.2843 30 15C30 6.71573 23.2843 0 15 0C6.71573 0 0 6.71573 0 15C0 23.2843 6.71573 30 15 30Z" fill="url(#paint0_linear_2408_3115)"/>
<path d="M12.9819 10.4487C13.372 10.5133 13.6541 10.5245 14.2843 10.5245H15.6624C16.4329 10.5245 16.5733 10.5245 17.0084 10.481C16.9536 11.0564 16.9326 11.5111 16.9326 12.2283V17.9136C16.9326 18.5648 16.9536 19.021 17.0196 19.5515H14.6548C14.7193 19.0518 14.7418 18.5424 14.7418 17.9136V12.3799H14.3081C13.8857 12.3799 13.4618 12.4009 12.9847 12.4557V10.4487H12.9819Z" fill="white"/>
<defs>
<linearGradient id="paint0_linear_2408_3115" x1="4.39418" y1="4.39418" x2="25.6072" y2="25.6072" gradientUnits="userSpaceOnUse">
<stop stop-color="#6D4799"/>
<stop offset="1" stop-color="#E6AE20"/>
</linearGradient>
</defs>
</svg>
