<svg width="80" height="80" viewBox="0 0 80 80" fill="none" xmlns="http://www.w3.org/2000/svg">
<path d="M39.9981 79.9963C62.0885 79.9963 79.9963 62.0885 79.9963 39.9981C79.9963 17.9078 62.0885 0 39.9981 0C17.9078 0 0 17.9078 0 39.9981C0 62.0885 17.9078 79.9963 39.9981 79.9963Z" fill="url(#paint0_linear_1_200)"/>
<path d="M49.4737 55.0611H30.5225V50.7649L33.9617 47.0525C39.0813 41.7009 42.1687 38.2205 42.1687 34.6279C42.1687 32.36 40.799 30.4851 37.9473 30.4851C35.9564 30.4851 34.0029 31.4993 32.6332 32.4798L30.8369 27.48C32.6744 26.1515 35.9152 24.939 39.317 24.939C45.9971 24.939 49.0059 29.0406 49.0059 34.0029C49.0059 38.9653 45.5667 43.2615 41.9329 46.8578L39.433 49.2417V49.3203H49.4737V55.0648V55.0611Z" fill="white"/>
<defs>
<linearGradient id="paint0_linear_1_200" x1="11.7173" y1="11.7173" x2="68.2827" y2="68.2827" gradientUnits="userSpaceOnUse">
<stop stop-color="#6D4799"/>
<stop offset="1" stop-color="#E6AE20"/>
</linearGradient>
</defs>
</svg>
