<svg width="30" height="30" viewBox="0 0 30 30" fill="none" xmlns="http://www.w3.org/2000/svg">
<path d="M15 30C23.2843 30 30 23.2843 30 15C30 6.71573 23.2843 0 15 0C6.71573 0 0 6.71573 0 15C0 23.2843 6.71573 30 15 30Z" fill="url(#paint0_linear_2408_3121)"/>
<path d="M18.5535 20.6489H11.4465V19.0377L12.7362 17.6455C14.6561 15.6386 15.814 14.3334 15.814 12.9861C15.814 12.1356 15.3003 11.4324 14.2309 11.4324C13.4843 11.4324 12.7517 11.8128 12.238 12.1805L11.5644 10.3055C12.2535 9.80725 13.4688 9.35254 14.7446 9.35254C17.2497 9.35254 18.3781 10.8907 18.3781 12.7517C18.3781 14.6126 17.0883 16.2238 15.7256 17.5725L14.7881 18.4665V18.496H18.5535V20.6503V20.6489Z" fill="white"/>
<defs>
<linearGradient id="paint0_linear_2408_3121" x1="4.39418" y1="4.39418" x2="25.6072" y2="25.6072" gradientUnits="userSpaceOnUse">
<stop stop-color="#6D4799"/>
<stop offset="1" stop-color="#E6AE20"/>
</linearGradient>
</defs>
</svg>
