<svg width="80" height="80" viewBox="0 0 80 80" fill="none" xmlns="http://www.w3.org/2000/svg">
<path d="M39.9981 79.9963C62.0885 79.9963 79.9963 62.0885 79.9963 39.9981C79.9963 17.9078 62.0885 0 39.9981 0C17.9078 0 0 17.9078 0 39.9981C0 62.0885 17.9078 79.9963 39.9981 79.9963Z" fill="url(#paint0_linear_1_191)"/>
<path d="M34.6166 27.8618C35.657 28.034 36.4092 28.0639 38.0895 28.0639H41.7645C43.8191 28.0639 44.1933 28.0639 45.3534 27.9479C45.2075 29.4823 45.1513 30.6948 45.1513 32.6071V47.7673C45.1513 49.5038 45.2075 50.72 45.3833 52.1346H39.0775C39.2497 50.8024 39.3095 49.4439 39.3095 47.7673V33.0113H38.1531C37.0267 33.0113 35.8965 33.0674 34.6241 33.2134V27.8618H34.6166Z" fill="white"/>
<defs>
<linearGradient id="paint0_linear_1_191" x1="11.7173" y1="11.7173" x2="68.2827" y2="68.2827" gradientUnits="userSpaceOnUse">
<stop stop-color="#6D4799"/>
<stop offset="1" stop-color="#E6AE20"/>
</linearGradient>
</defs>
</svg>
